<?xml version="1.0" encoding="UTF-8"?>
<svg id="Capa_5" data-name="Capa 5" xmlns="http://www.w3.org/2000/svg" viewBox="0 0 152.89 19.42">
  <defs>
    <style>
      .cls-1 {
        fill: #fff;
        stroke-width: 0px;
      }
    </style>
  </defs>
  <g id="sVvytW.tif">
    <g>
      <path class="cls-1" d="M0,11.56c.17-.41.47-.66.89-.83,4.84-2.05,9.88-3.39,15.09-4.11.31-.04.62-.09.93-.13.52-.07.87.09,1.04.56.28.76.54,1.52.76,2.3.16.53-.07.81-.63.9-5.65.91-11.13,2.41-16.35,4.75-.75.34-1.05.18-1.22-.62C.34,13.6.17,12.81,0,12.03c0-.16,0-.31,0-.47Z"/>
      <path class="cls-1" d="M139.29,0c.31.14.64.23.91.43.64.46.84,1.28.56,1.99-.29.73-1.08,1.2-1.86,1.11-.77-.09-1.39-.69-1.52-1.48-.12-.72.29-1.5.99-1.83.18-.08.37-.15.56-.22.12,0,.25,0,.37,0Z"/>
      <path class="cls-1" d="M118.14,16.68v-.51c0-2.08,0-4.16,0-6.24,0-1.21-.59-1.83-1.8-1.93-.72-.06-1.42.02-2.11.33.41,1.46.2,2.92.24,4.37.03,1.32,0,2.63,0,3.99h-3.37v-.53c0-2,0-4.01,0-6.01,0-1.5-.61-2.12-2.12-2.16-1.53-.04-1.54-.03-1.54,1.48v7.22h-3.44c0-.13,0-.28,0-.43,0-3.09,0-6.18.02-9.27,0-.17.07-.44.2-.51,2.37-1.29,4.84-1.86,7.48-.88.27.1.55.24.77.43.32.28.55.28.93.07,1.78-.94,3.66-1.32,5.64-.68,1.66.54,2.48,1.69,2.49,3.41,0,2.49,0,4.97,0,7.46,0,.12-.02.24-.03.4h-3.36Z"/>
      <path class="cls-1" d="M23.95,1.98c2-.27,3.96-.59,5.95-.39,1.13.11,2.19.45,3.13,1.12,1.81,1.28,2.11,4.46-.44,5.58-.04.02-.08.05-.18.11.25.1.45.19.66.27,2.74,1.04,2.9,4.86.89,6.54-1.2,1-2.59,1.48-4.13,1.5-1.87.03-3.74,0-5.61,0-.08,0-.15-.02-.26-.04V1.98ZM27.43,10.44v3.45c.94-.05,1.86-.02,2.75-.17,1.01-.16,1.45-.83,1.38-1.83-.06-.82-.63-1.38-1.6-1.44-.82-.05-1.65-.01-2.53-.01ZM27.4,7.55c.68,0,1.29,0,1.89,0,.12,0,.25-.03.37-.05.9-.18,1.32-.65,1.33-1.47.01-.81-.45-1.43-1.31-1.54-.67-.09-1.36-.03-2.04,0-.08,0-.23.16-.23.25-.02.92-.01,1.85-.01,2.82Z"/>
      <path class="cls-1" d="M127.36,6.39c1.11-.85,2.21-1.34,3.51-1.28,2.44.11,3.93,1.37,4.41,3.76.28,1.4.21,2.79-.24,4.14-.76,2.26-2.41,3.5-4.73,3.84-2.02.3-4.01.03-5.95-.6-.31-.1-.43-.24-.43-.59.01-4.4.01-8.79,0-13.19,0-.33.1-.51.39-.65.94-.46,1.92-.77,3.04-.84v5.4ZM127.36,11.19c0,.84.01,1.68,0,2.51,0,.32.11.46.42.46.61.01,1.21.07,1.82.03.96-.07,1.65-.6,2.06-1.46.43-.9.47-1.85.3-2.82-.19-1.03-.83-1.64-1.85-1.84-.79-.15-1.58-.12-2.35.12-.28.09-.39.23-.39.53.02.82,0,1.64,0,2.47Z"/>
      <path class="cls-1" d="M82.93,11.48c-.05,1.75-.76,3.59-2.76,4.72-2.48,1.4-6.12.82-7.86-1.2-1.93-2.25-1.97-7.25,1.45-9.15,2.41-1.33,6.57-1.1,8.32,1.81.56.93.87,2.09.86,3.81ZM79.52,11.04s-.03,0-.04,0c0-.17,0-.34,0-.51-.1-1.49-1.01-2.46-2.37-2.51-1.45-.06-2.44.79-2.61,2.34-.06.53-.06,1.09.05,1.61.09.45.31.93.6,1.28.66.79,1.58.87,2.52.67.97-.2,1.48-.87,1.7-1.78.09-.36.1-.73.15-1.1Z"/>
      <path class="cls-1" d="M102.25,11.54c-.02,1.44-.6,3.11-2.21,4.31-2.25,1.67-6.93,1.64-8.82-1.43-1.57-2.54-1.05-6.29,1.13-8.08,2.38-1.96,7.37-1.83,9.17,1.53.47.88.74,1.94.73,3.67ZM93.73,11.13c.07.38.12.87.27,1.34.29.92,1.08,1.48,2.08,1.53,1.22.06,2.02-.38,2.44-1.33.34-.76.36-1.56.26-2.37-.17-1.35-1.03-2.2-2.3-2.27-1.36-.07-2.3.65-2.61,2.02-.07.31-.08.64-.14,1.09Z"/>
      <path class="cls-1" d="M149.47,9.67c.12-1.03-.34-1.7-1.3-1.75-.78-.04-1.58.04-2.37.14-1.35.19-1.75-.03-2.19-1.31-.08-.23-.15-.47-.23-.73,1.16-.47,2.33-.83,3.55-.85,1.05-.02,2.13.04,3.15.27,1.69.39,2.71,1.65,2.77,3.38.08,2.16.05,4.32.04,6.47,0,.17-.18.38-.34.48-.96.62-2.05.9-3.17,1.04-1.35.18-2.7.28-4.04-.02-1.65-.37-2.59-1.29-2.74-2.65-.17-1.55.63-2.92,2.12-3.6,1.27-.58,2.63-.74,4-.84.26-.02.52-.03.77-.04ZM149.55,11.87c-.55,0-1.06-.07-1.54.02-.57.1-1.14.28-1.66.52-.41.19-.52.62-.45,1.08.07.46.35.71.78.81.89.19,1.76.14,2.58-.3.12-.06.27-.21.28-.33.03-.6.01-1.2.01-1.8Z"/>
      <path class="cls-1" d="M43.34,9.65c.11-1.03-.35-1.68-1.31-1.73-.77-.04-1.55.03-2.32.14-1.44.19-1.8,0-2.27-1.39-.07-.2-.14-.41-.21-.64,1.18-.47,2.36-.79,3.59-.87,1.12-.07,2.24-.03,3.33.34,1.54.52,2.44,1.61,2.52,3.19.11,2.22.06,4.44.05,6.66,0,.16-.2.37-.37.47-.97.59-2.05.88-3.18,1.02-1.36.17-2.74.31-4.09-.07-.61-.17-1.25-.45-1.73-.86-1.47-1.25-1.18-3.8.52-4.97,1.1-.76,2.37-1,3.66-1.14.6-.07,1.2-.1,1.8-.15ZM43.42,11.76c-.84.09-1.61.13-2.37.27-.36.07-.74.27-1.01.52-.57.52-.35,1.49.37,1.7.93.27,1.85.19,2.71-.26.14-.07.27-.27.28-.42.03-.55.01-1.11.01-1.81Z"/>
      <path class="cls-1" d="M52.26,16.69h-3.43c0-.53,0-1.03,0-1.54,0-2.7.03-5.41.01-8.11,0-.38.12-.59.46-.75,2.25-1.06,4.59-1.51,7.04-.96,1.3.29,2.37.96,2.86,2.29.1.27.15.58.15.87.01,2.63,0,5.25,0,7.88,0,.09-.01.18-.02.31h-3.37v-.55c0-2.04,0-4.07,0-6.11,0-1.31-.6-1.96-1.91-2.03-.45-.02-.9.05-1.35.07-.36.01-.46.19-.45.54.01,2.5,0,5,0,7.5,0,.18,0,.36,0,.59Z"/>
      <path class="cls-1" d="M70.3,5.46c-.12.92-.39,1.74-.94,2.44-.1.12-.38.19-.55.16-.76-.14-1.52-.16-2.27.03-1.13.29-1.82,1-1.96,2.16-.06.53-.06,1.09.03,1.62.2,1.2,1.11,1.98,2.45,2.01.86.02,1.72-.14,2.66-.22.17.76.38,1.64.59,2.57-1.93.72-3.86,1.02-5.86.38-1.24-.4-2.19-1.16-2.83-2.29-2.28-4.02.24-8.8,4.83-9.2,1.29-.11,2.55.05,3.85.34Z"/>
      <path class="cls-1" d="M88.33,16.69h-3.42c0-.17,0-.33,0-.5,0-4.57,0-9.13,0-13.7,0-.32.08-.51.38-.66.96-.46,1.95-.79,3.05-.85v15.71Z"/>
      <path class="cls-1" d="M4.22,7.11c-.49,0-.74-.18-.84-.54-.22-.82-.45-1.65-.64-2.48-.13-.58.15-1.01.79-1.16,2.26-.52,4.52-1.05,6.79-1.51,1.16-.24,2.34-.35,3.51-.52.62-.09.93.09,1.15.68.24.64.48,1.28.71,1.92.29.82.11,1.11-.74,1.24-3.29.48-6.53,1.16-9.72,2.07-.37.11-.74.22-1.01.29Z"/>
      <path class="cls-1" d="M7.51,19.42c-.5-.02-.76-.24-.87-.65-.21-.76-.43-1.52-.63-2.29-.17-.63.03-1.02.68-1.21,2.44-.72,4.89-1.43,7.34-2.12.9-.25,1.82-.43,2.73-.64.69-.15,1.02.04,1.23.72.22.69.45,1.39.66,2.08.16.52,0,.79-.52.94-3.41,1.02-6.82,2.04-10.23,3.06-.15.04-.3.07-.39.09Z"/>
      <path class="cls-1" d="M140.81,16.69h-3.4v-.52c0-3.43,0-6.86-.01-10.29,0-.42.16-.58.52-.65.85-.18,1.7-.19,2.54.04.26.07.39.17.38.47-.01,3.55,0,7.11,0,10.66,0,.08-.01.15-.03.29Z"/>
    </g>
  </g>
</svg>