<?xml version="1.0" encoding="UTF-8"?>
<svg id="Capa_5" data-name="Capa 5" xmlns="http://www.w3.org/2000/svg" viewBox="0 0 90.89 72.13">
  <defs>
    <style>
      .cls-1 {
        fill: #fff;
        stroke-width: 0px;
      }
    </style>
  </defs>
  <path class="cls-1" d="M24.73,5.97h41.14v41.14H24.73V5.97ZM65.88,5.97V0H18.76v47.11h5.97v5.97h47.12V5.97h-5.97Z"/>
  <path class="cls-1" d="M78.26,64.76c0,1.56.52,2.85,1.58,3.86,1.04,1,2.25,1.51,3.62,1.51,1.49,0,2.74-.52,3.76-1.54,1.02-1.04,1.54-2.3,1.54-3.79s-.51-2.77-1.51-3.79c-1.01-1.03-2.25-1.54-3.72-1.54s-2.72.52-3.74,1.54c-1.01,1.01-1.52,2.27-1.52,3.76M76.11,64.73c0-1.99.73-3.7,2.19-5.13,1.46-1.43,3.2-2.15,5.24-2.15s3.74.72,5.18,2.16c1.45,1.44,2.17,3.17,2.17,5.19s-.73,3.76-2.19,5.18c-1.45,1.42-3.22,2.13-5.28,2.13-1.82,0-3.47-.63-4.91-1.9-1.6-1.4-2.4-3.23-2.4-5.5"/>
  <path class="cls-1" d="M51.17,64.22l.95-.02c2.01,0,3.02-.77,3.02-2.32,0-1.45-.98-2.17-2.94-2.17l-1.03.02M53.84,65.85l4.56,6.03h-2.61l-4.22-5.79h-.39v5.79h-2.1v-14.15l2.76-.02c1.87,0,3.21.36,4.04,1.06.92.78,1.37,1.81,1.37,3.1,0,1-.29,1.86-.87,2.58-.57.72-1.61,1.2-2.55,1.4"/>
  <rect class="cls-1" x="60.75" y="57.72" width="2.11" height="14.15"/>
  <path class="cls-1" d="M4.62,66.42l2.13-4.82,2.04,4.82M0,71.87h2.23l1.53-3.45h5.87l1.44,3.45h2.27l-6.16-14.15h-.79l-6.39,14.15Z"/>
  <path class="cls-1" d="M38.4,66.42l2.13-4.81,2.04,4.81M40.96,57.72h-.8l-6.38,14.15h2.23l1.53-3.45h5.88l1.44,3.45h2.26l-6.16-14.15Z"/>
  <polyline class="cls-1" points="68.46 69.73 68.46 57.71 66.33 57.71 66.33 71.87 75.88 71.87 75.88 69.73"/>
  <polyline class="cls-1" points="29.41 57.71 28.66 57.71 23.66 67.65 18.83 57.71 18.08 57.71 15.02 71.87 17.46 71.87 19.14 63.31 23.24 71.88 24.01 71.88 28.24 63.32 29.74 71.87 32.15 71.87"/>
</svg>