<?xml version="1.0" encoding="UTF-8"?>
<svg id="Capa_5" data-name="Capa 5" xmlns="http://www.w3.org/2000/svg" viewBox="0 0 100.77 40.54">
  <defs>
    <style>
      .cls-1 {
        fill: #fff;
        stroke-width: 0px;
      }
    </style>
  </defs>
  <path class="cls-1" d="M58.47,20.99c0,.19.06.29.17.29.08,0,.15-.03.24-.09L90.29.8c.55-.36,1.06-.55,1.81-.55h6.9c1.06,0,1.77.71,1.77,1.77v13.18c0,1.59-.35,2.51-1.77,3.36l-8.37,5.03c-.11.07-.2.1-.28.1-.1,0-.2-.08-.2-.36V7.95c0-.17-.06-.3-.17-.3-.08,0-.15.03-.24.09l-22.96,14.91c-.64.42-1.17.54-1.76.54h-15.22c-1.06,0-1.77-.71-1.77-1.77V2.44c0-.14-.06-.27-.17-.27-.08,0-.15.03-.25.09l-15.14,9.1c-.15.09-.19.17-.19.24,0,.07.03.13.13.23l10.82,10.82c.14.14.24.25.24.37,0,.13-.16.19-.34.19h-9.79c-.77,0-1.36-.12-1.77-.53l-6.56-6.56c-.06-.06-.12-.1-.19-.1-.06,0-.13.03-.2.07l-10.97,6.59c-.66.4-1.12.53-1.77.53H1.77c-1.06,0-1.77-.71-1.77-1.77v-12.94c0-1.59.36-2.51,1.77-3.36L10.19.07c.08-.05.16-.07.23-.07.13,0,.2.13.2.43v17.3c0,.18.05.27.17.27.08,0,.15-.05.25-.1L39.5.78c.68-.41,1.1-.53,1.88-.53h15.32c1.06,0,1.77.71,1.77,1.77v18.98Z"/>
  <polygon class="cls-1" points="0 30.99 .81 30.99 3.46 37.15 6.11 30.99 6.91 30.99 6.91 38.39 6.22 38.39 6.22 32.3 3.6 38.39 3.31 38.39 .69 32.3 .69 38.39 0 38.39 0 30.99"/>
  <path class="cls-1" d="M8.02,35.65c0-1.67.98-2.73,2.41-2.73s2.41,1.06,2.41,2.73v.17c0,1.67-.98,2.72-2.41,2.72s-2.41-1.05-2.41-2.72v-.17ZM10.43,37.99c1.05,0,1.72-.81,1.72-2.17v-.17c0-1.35-.67-2.18-1.72-2.18s-1.73.83-1.73,2.18v.17c0,1.36.67,2.17,1.73,2.17"/>
  <polygon class="cls-1" points="13.8 33.07 15.53 37.68 17.27 33.07 17.94 33.07 15.91 38.39 15.13 38.39 13.09 33.07 13.8 33.07"/>
  <path class="cls-1" d="M18.2,35.6c0-1.56.95-2.67,2.33-2.67s2.22.88,2.22,2.73v.28h-3.88c.04,1.15.67,2.06,1.72,2.06.93,0,1.53-.47,1.88-.81v.72c-.4.36-1.07.63-1.88.63-1.5,0-2.4-1.11-2.4-2.72v-.22ZM22.09,35.41c-.03-1.37-.7-1.94-1.56-1.94s-1.59.75-1.65,1.94h3.21Z"/>
  <path class="cls-1" d="M23.76,33.07h.58l.07,1.09c.34-.65.96-1.24,1.82-1.24.82,0,1.34.44,1.5,1.28.36-.67.98-1.28,1.86-1.28.99,0,1.56.64,1.56,1.86v3.61h-.66v-3.51c0-.93-.26-1.41-.99-1.41-.66,0-1.49.76-1.72,1.61v3.31h-.66v-3.51c0-.93-.25-1.41-.98-1.41-.66,0-1.49.76-1.72,1.61v3.31h-.66v-5.32Z"/>
  <path class="cls-1" d="M32.11,35.6c0-1.56.95-2.67,2.33-2.67s2.22.88,2.22,2.73v.28h-3.88c.04,1.15.67,2.06,1.72,2.06.93,0,1.53-.47,1.88-.81v.72c-.4.36-1.07.63-1.88.63-1.5,0-2.4-1.11-2.4-2.72v-.22ZM36,35.41c-.03-1.37-.7-1.94-1.56-1.94s-1.59.75-1.65,1.94h3.21Z"/>
  <path class="cls-1" d="M37.67,33.07h.58l.07,1.23c.34-.67,1.04-1.37,2-1.37,1.1,0,1.68.69,1.68,1.96v3.51h-.66v-3.41c0-.97-.28-1.51-1.11-1.51s-1.68.9-1.89,1.83v3.09h-.66v-5.32Z"/>
  <polygon class="cls-1" points="42.6 33.07 43.78 33.07 43.78 31.45 44.44 31.45 44.44 33.07 45.62 33.07 45.62 33.63 44.44 33.63 44.44 38.39 43.78 38.39 43.78 33.63 42.6 33.63 42.6 33.07"/>
  <polygon class="cls-1" points="48.63 33.07 49.81 33.07 49.81 31.45 50.47 31.45 50.47 33.07 51.65 33.07 51.65 33.63 50.47 33.63 50.47 38.39 49.81 38.39 49.81 33.63 48.63 33.63 48.63 33.07"/>
  <path class="cls-1" d="M52.41,30.93h.66v3.34c.34-.66,1.04-1.34,1.98-1.34,1.1,0,1.68.69,1.68,1.96v3.51h-.66v-3.41c0-.97-.28-1.51-1.11-1.51s-1.65.87-1.88,1.79v3.13h-.66v-7.46Z"/>
  <path class="cls-1" d="M57.88,36.15c.29-.44.88-.64,1.96-.85l1.43-.27c0-1.03-.45-1.56-1.44-1.56-.78,0-1.38.36-1.8.79v-.67c.38-.35,1.01-.66,1.8-.66,1.27,0,2.1.63,2.1,1.95v3.52h-.49l-.17-.92c-.47.64-1.24,1.06-2.07,1.06-.93,0-1.58-.52-1.58-1.51,0-.32.07-.6.25-.88M59.34,37.99c.63,0,1.47-.43,1.93-1.26v-1.17l-1.01.2c-.73.14-1.47.23-1.78.64-.14.18-.18.37-.18.6,0,.67.43.98,1.04.98"/>
  <polygon class="cls-1" points="62.51 33.07 63.69 33.07 63.69 31.45 64.36 31.45 64.36 33.07 65.54 33.07 65.54 33.63 64.36 33.63 64.36 38.39 63.69 38.39 63.69 33.63 62.51 33.63 62.51 33.07"/>
  <path class="cls-1" d="M69.23,31.12h.66v.95h-.66v-.95ZM69.23,33.07h.66v5.32h-.66v-5.32Z"/>
  <path class="cls-1" d="M71.19,33.07h.58l.07,1.23c.34-.67,1.04-1.37,2-1.37,1.1,0,1.68.69,1.68,1.96v3.51h-.66v-3.41c0-.97-.28-1.51-1.11-1.51s-1.68.9-1.89,1.83v3.09h-.66v-5.32Z"/>
  <path class="cls-1" d="M76.52,37.18c.49.56.97.82,1.66.82.77,0,1.3-.35,1.3-.93,0-.39-.13-.68-.82-.97l-.81-.34c-.85-.36-1.26-.8-1.26-1.45,0-.71.62-1.37,1.74-1.37.67,0,1.26.29,1.63.6v.76c-.52-.55-1.11-.82-1.63-.82-.75,0-1.06.4-1.06.83,0,.38.29.59.9.85l.78.33c.87.37,1.21.85,1.21,1.56,0,.91-.81,1.5-1.98,1.5-.84,0-1.32-.28-1.66-.6v-.76Z"/>
  <path class="cls-1" d="M81.13,33.07h.58l.06.96c.38-.63,1.04-1.1,1.79-1.1,1.35,0,2.31,1.11,2.31,2.8s-.96,2.82-2.31,2.82c-.74,0-1.38-.46-1.77-1.06v3.06h-.66v-7.46ZM83.51,37.99c1,0,1.69-.91,1.69-2.27s-.68-2.25-1.69-2.25c-.75,0-1.46.67-1.72,1.49v1.54c.25.82.96,1.49,1.72,1.49"/>
  <path class="cls-1" d="M86.89,31.12h.66v.95h-.66v-.95ZM86.89,33.07h.66v5.32h-.66v-5.32Z"/>
  <path class="cls-1" d="M88.85,33.07h.58l.06.95c.32-.65.83-1.09,1.59-1.09.21,0,.45.04.54.08v.58c-.14-.05-.33-.09-.58-.09-.65,0-1.26.51-1.52,1.32v3.58h-.66v-5.32Z"/>
  <path class="cls-1" d="M91.88,35.6c0-1.56.95-2.67,2.33-2.67s2.22.88,2.22,2.73v.28h-3.88c.04,1.15.67,2.06,1.72,2.06.93,0,1.53-.47,1.88-.81v.72c-.4.36-1.07.63-1.88.63-1.5,0-2.4-1.11-2.4-2.72v-.22ZM95.76,35.41c-.03-1.37-.7-1.94-1.56-1.94s-1.59.75-1.65,1.94h3.21Z"/>
  <path class="cls-1" d="M97.13,37.18c.49.56.97.82,1.66.82.77,0,1.3-.35,1.3-.93,0-.39-.13-.68-.82-.97l-.81-.34c-.85-.36-1.26-.8-1.26-1.45,0-.71.62-1.37,1.74-1.37.67,0,1.26.29,1.63.6v.76c-.52-.55-1.11-.82-1.63-.82-.75,0-1.06.4-1.06.83,0,.38.29.59.9.85l.78.33c.87.37,1.21.85,1.21,1.56,0,.91-.81,1.5-1.98,1.5-.84,0-1.32-.28-1.66-.6v-.76Z"/>
</svg>