<?xml version="1.0" encoding="UTF-8"?>
<svg id="Capa_5" data-name="Capa 5" xmlns="http://www.w3.org/2000/svg" viewBox="0 0 132.76 28.02">
  <defs>
    <style>
      .cls-1 {
        fill: #fff;
        stroke-width: 0px;
      }
    </style>
  </defs>
  <path class="cls-1" d="M82.95,21.01c-.73.65-2,.99-3.43,1.15-2.03.23-3.41.57-3.41,1.98,0,1.1,1.07,1.72,2.37,1.72,1.04,0,2-.37,2.7-1.04.73-.71,1.24-1.69,1.52-2.8l.25-1.02ZM85.05,11.34c.76-3.56,4.36-2.96,4.36-2.96l-2.53,11.89c-.51,2.39-1.19,4.09-2.29,5.33-1.35,1.52-3.47,2.42-6.14,2.42-3.12,0-5.47-1.4-5.47-3.78,0-1.61,1.01-2.73,3.18-3.27-.57-.63-.93-1.44-.93-2.45,0-.71.17-1.55.34-2.37,0,0,.14-.65.98-4.57.84-3.92,4.41-3.2,4.41-3.2l-1.66,7.89c-.14.67-.89,3.27,1.46,3.27,2.64,0,3.24-3.27,3.61-4.99,0,0-.08.35.69-3.21M69.95,10.72c-.24-.12-.51-.21-.84-.21-3.27,0-5.34,3.95-5.34,6.83,0,1.61.62,2.46,1.89,2.46.91,0,1.56-.34,2.07-.9.5-.59.82-1.47,1.04-2.48l1.19-5.69ZM73.91,9.44l-2.66,12.9h-.5c-1.13,0-2.12-.39-2.45-1.45-.76.82-2.1,1.45-3.79,1.45-2.82,0-4.54-1.86-4.54-4.88,0-5.16,4.09-9.31,9.23-9.31,1.77,0,3.29.51,4.73,1.3M60.81.87l-4.43,21.47h-.5c-1.13,0-2.12-.41-2.44-1.44-.79.82-2.1,1.44-3.8,1.44-2.83,0-4.68-1.89-4.68-4.91,0-4.91,3.84-9.29,9.22-9.29.53,0,1.07.04,1.41.13-.03.17.59-2.78.92-4.47.68-3.46,4-2.97,4.3-2.93M55.09,10.73c-.2-.12-.67-.22-1.1-.22-2.88,0-5.21,3.53-5.21,6.8,0,1.61.75,2.48,2.02,2.48.9,0,1.53-.34,2.04-.9.51-.59.85-1.47,1.07-2.48l1.18-5.68ZM125.54,8.14c-1.79,0-3.32.81-4.3,1.89,0,0-.13-2.71-3.71-1.63.65,1.9.29,2.57-.43,6.4l-.76,3.7c-.13.64-.97,3.84,2.41,3.84h.5l1.33-6.44c.37-1.72,1.06-5,3.67-5,1.3,0,1.96.81,1.56,2.79l-.99,4.8c-.14.62-.99,3.84,2.4,3.84h.5l1.81-8.79c.81-3.76-1.15-5.41-3.98-5.41M13.08,2.97c-.17.81-.54,2.59-1.14,5.51l-6.23,1.24L7.54.87c-.57-.1-3.66-.35-4.29,2.87-.2,1.01-3.06,14.76-3.06,14.76-.14.72-.98,3.84,2.39,3.84h.52l1.8-8.7,6.23-1.24c-.62,2.99-1.27,6.1-1.27,6.1-.14.62-.97,3.84,2.4,3.84h.51L17.38.05s-3.57-.64-4.3,2.92M110.24,8.14c-1.79,0-3.32.81-4.3,1.89,0,0-.13-2.71-3.71-1.63.65,1.9.29,2.57-.43,6.4l-.76,3.7c-.13.64-.97,3.84,2.4,3.84h.5l1.33-6.44c.37-1.72,1.06-5,3.67-5,1.3,0,1.96.81,1.55,2.79l-.99,4.8c-.14.62-.99,3.84,2.4,3.84h.5l1.82-8.79c.81-3.76-1.15-5.41-3.98-5.41M97.05,2.81c-.56,2.61-3.24,15.69-3.24,15.69-.17.75-.91,3.84,2.4,3.84h.51L101.31.05c-.87-.15-3.64-.14-4.26,2.76M26.42,13.13c0-1.47-.56-2.51-2.05-2.51-.93,0-1.76.54-2.38,1.33-1.16,1.46-1.75,3.81-1.75,5.39,0,1.47.59,2.51,2.09,2.51.93,0,1.72-.54,2.34-1.33,1.16-1.46,1.75-3.81,1.75-5.39M30.2,13.1c0,2.97-1.22,5.79-3.31,7.48-1.32,1.1-3.07,1.76-5.05,1.76-3.13,0-5.39-1.7-5.39-5,0-2.96,1.21-5.76,3.3-7.45,1.32-1.1,3.07-1.75,5.05-1.75,3.13,0,5.39,1.66,5.39,4.96M40,11.21c-.75,3.48-1.5,7.29-1.5,7.29-.14.62-.97,3.84,2.4,3.84h.5l2.88-13.95c-.13-.02-3.55-.6-4.28,2.83M34.73,3.73c-.73,3.56-3.05,14.76-3.05,14.76-.14.62-.97,3.84,2.4,3.84h.51L39.02.87s-3.56-.66-4.29,2.87M43.61,2.57c-1.3,0-2.57,1.19-2.57,2.52,0,.99.7,1.67,1.66,1.67,1.3,0,2.6-1.19,2.6-2.52,0-.98-.73-1.67-1.69-1.67M130.4,8.32v-.19h.96v.19h-.37v.93h-.22v-.93h-.37ZM131.86,8.13l.29.8.29-.8h.32v1.12h-.21v-.9l-.31.9h-.18l-.31-.9v.9h-.2v-1.12h.32Z"/>
</svg>