<?xml version="1.0" encoding="UTF-8"?>
<svg id="Capa_5" data-name="Capa 5" xmlns="http://www.w3.org/2000/svg" viewBox="0 0 101.45 33.94">
  <defs>
    <style>
      .cls-1 {
        fill: #fff;
        stroke-width: 0px;
      }
    </style>
  </defs>
  <path class="cls-1" d="M84.48,0c-4.31,0-8.25,1.62-11.25,4.28-3-2.66-6.94-4.28-11.25-4.28s-8.25,1.62-11.25,4.28c-3-2.66-6.94-4.28-11.25-4.28s-8.25,1.62-11.25,4.28C25.23,1.62,21.29,0,16.97,0,7.61,0,0,7.61,0,16.97s7.61,16.97,16.97,16.97c4.31,0,8.25-1.62,11.25-4.28,3,2.66,6.94,4.28,11.25,4.28s8.25-1.62,11.25-4.28c3,2.66,6.94,4.28,11.25,4.28s8.25-1.62,11.25-4.28c3,2.66,6.94,4.28,11.25,4.28,9.36,0,16.97-7.61,16.97-16.97S93.84,0,84.48,0ZM73.23,26.45c-2.16-2.56-3.47-5.87-3.47-9.48s1.31-6.92,3.47-9.48c2.16,2.56,3.47,5.87,3.47,9.48s-1.31,6.92-3.47,9.48ZM50.73,26.45c-2.16-2.56-3.47-5.87-3.47-9.48s1.31-6.92,3.47-9.48c2.16,2.56,3.47,5.87,3.47,9.48s-1.31,6.92-3.47,9.48ZM28.22,26.45c-2.16-2.56-3.47-5.87-3.47-9.48s1.31-6.92,3.47-9.48c2.16,2.56,3.47,5.87,3.47,9.48s-1.31,6.92-3.47,9.48ZM2.25,16.97c0-8.12,6.6-14.72,14.72-14.72,3.7,0,7.08,1.37,9.67,3.64-2.57,2.98-4.14,6.85-4.14,11.09s1.56,8.11,4.14,11.09c-2.59,2.26-5.97,3.64-9.67,3.64-8.12,0-14.72-6.6-14.72-14.72ZM29.81,28.06c2.57-2.98,4.14-6.85,4.14-11.09s-1.56-8.11-4.14-11.09c2.59-2.26,5.97-3.64,9.67-3.64s7.08,1.37,9.67,3.64c-2.57,2.98-4.14,6.85-4.14,11.09s1.56,8.11,4.14,11.09c-2.59,2.26-5.97,3.64-9.67,3.64s-7.08-1.37-9.67-3.64ZM52.31,28.06c2.57-2.98,4.14-6.85,4.14-11.09s-1.56-8.11-4.14-11.09c2.59-2.26,5.97-3.64,9.67-3.64s7.08,1.37,9.67,3.64c-2.57,2.98-4.14,6.85-4.14,11.09s1.56,8.11,4.14,11.09c-2.59,2.26-5.97,3.64-9.67,3.64s-7.08-1.37-9.67-3.64ZM84.48,31.69c-3.7,0-7.08-1.37-9.67-3.64,2.57-2.98,4.14-6.85,4.14-11.09s-1.56-8.11-4.14-11.09c2.59-2.26,5.97-3.64,9.67-3.64,8.12,0,14.72,6.6,14.72,14.72s-6.6,14.72-14.72,14.72Z"/>
</svg>