<?xml version="1.0" encoding="UTF-8"?>
<svg id="Capa_5" data-name="Capa 5" xmlns="http://www.w3.org/2000/svg" viewBox="0 0 148.37 22.97">
  <defs>
    <style>
      .cls-1 {
        fill: #fff;
        stroke-width: 0px;
      }
    </style>
  </defs>
  <path class="cls-1" d="M9.4,8.23c.09.8.31,1.35.56,1.63h-2.22c.21-.31.26-.89.19-1.57l-.51-4.72-2.26,6.29h-1.03L1.85,3.49l-.52,4.81c-.08.67-.02,1.26.19,1.57H0c.25-.29.47-.84.56-1.63l.53-4.51c.09-.74.08-1.29-.11-1.58h1.86l2.14,5.95,1.62-4.57c.21-.6.29-1.12.14-1.38h2.23c-.19.29-.2.84-.11,1.58l.53,4.51Z"/>
  <path class="cls-1" d="M18.72,9.86c.12-.31.03-.89-.23-1.57l-.21-.52h-3.57l-.19.49c-.25.65-.31,1.26-.19,1.6h-1.71c.41-.31.77-.86,1.1-1.69l2.4-6.03h1.33l2.48,6.09c.32.8.67,1.35,1,1.63h-2.23ZM17.97,7l-1.5-3.77-1.47,3.77h2.97Z"/>
  <path class="cls-1" d="M27.28,2.14c1.84,0,2.84.97,2.84,2.06,0,1.39-1.58,2.2-3.43,2.27.46.28.89.72,1.35,1.11.56.5,1.16.92,1.94.92.36,0,.65-.09.88-.19l-.07,1.51c-.3.14-.64.19-.88.19-1.22,0-2.13-1.09-2.6-1.74-.65-.87-1.08-1.71-1.46-1.71h-.13v1.72c0,.74.12,1.29.35,1.58h-2.14c.23-.29.35-.84.35-1.58V3.72c0-.74-.12-1.29-.35-1.58h3.35ZM26.32,5.92c1.52,0,2.27-.66,2.27-1.53s-.67-1.53-2.01-1.53h-.87v3.07h.61Z"/>
  <path class="cls-1" d="M34.39,9.86c.23-.29.35-.84.35-1.58V3.72c0-.74-.12-1.29-.35-1.58h2.14c-.23.29-.35.84-.35,1.58v4.57c0,.74.12,1.29.35,1.58h-2.14Z"/>
  <path class="cls-1" d="M48.45,6c0,2.1-1.45,4.08-4.24,4.08s-4.26-1.99-4.26-4.09,1.46-4.07,4.26-4.07,4.24,1.99,4.24,4.08M44.21,9.31c1.41,0,2.67-1.13,2.67-3.32s-1.26-3.3-2.67-3.3-2.69,1.13-2.69,3.3,1.27,3.32,2.69,3.32"/>
  <path class="cls-1" d="M64.2,8.28c0,.74.12,1.29.35,1.58h-2.14c.23-.29.35-.84.35-1.58v-1.95h-4.3v1.95c0,.74.12,1.29.35,1.58h-2.14c.23-.29.35-.84.35-1.58V3.72c0-.74-.12-1.29-.35-1.58h2.14c-.23.29-.35.84-.35,1.58v1.84h4.3v-1.84c0-.74-.12-1.29-.35-1.58h2.14c-.23.29-.35.84-.35,1.58v4.57Z"/>
  <path class="cls-1" d="M74.18,8.61v1.25h-5.87c.23-.29.35-.84.35-1.58V3.72c0-.74-.12-1.29-.35-1.58h5.69v1.13c-.29-.23-.84-.35-1.58-.35h-2.31v2.69h1.82c.74,0,1.29-.12,1.58-.35v1.42c-.29-.23-.84-.35-1.58-.35h-1.82v2.77h1.92c1,0,1.75-.17,2.14-.47"/>
  <path class="cls-1" d="M81.12,2.14c1.84,0,2.84.97,2.84,2.06,0,1.39-1.58,2.2-3.43,2.27.46.28.89.72,1.35,1.11.56.5,1.16.92,1.94.92.36,0,.65-.09.88-.19l-.07,1.51c-.3.14-.64.19-.88.19-1.23,0-2.13-1.09-2.6-1.74-.65-.87-1.08-1.71-1.46-1.71h-.13v1.72c0,.74.12,1.29.35,1.58h-2.14c.23-.29.35-.84.35-1.58V3.72c0-.74-.12-1.29-.35-1.58h3.35ZM80.16,5.92c1.52,0,2.27-.66,2.27-1.53s-.67-1.53-2.01-1.53h-.87v3.07h.61Z"/>
  <path class="cls-1" d="M95.04,8.28c0,.74.12,1.29.35,1.58h-1.54l-4.88-6.14v4.57c0,.74.12,1.29.35,1.58h-1.48c.23-.29.35-.84.35-1.58V3.72c0-.74-.12-1.29-.35-1.58h1.67l4.76,5.97V3.72c0-.74-.12-1.29-.35-1.58h1.48c-.23.29-.35.84-.35,1.58v4.57Z"/>
  <path class="cls-1" d="M104.64,9.86c.12-.31.03-.89-.23-1.57l-.21-.52h-3.57l-.19.49c-.25.65-.31,1.26-.19,1.6h-1.71c.41-.31.77-.86,1.1-1.69l3.25-8.17h2.32l-2.74,2.14h.9l2.48,6.09c.32.79.67,1.35,1,1.63h-2.23ZM103.87,6.95l-1.48-3.72-1.45,3.72h2.92Z"/>
  <path class="cls-1" d="M117.21,8.28c0,.74.12,1.29.35,1.58h-1.54l-4.88-6.14v4.57c0,.74.12,1.29.35,1.58h-1.48c.23-.29.35-.84.35-1.58V3.72c0-.74-.12-1.29-.35-1.58h1.67l4.75,5.97V3.72c0-.74-.12-1.29-.35-1.58h1.48c-.23.29-.35.84-.35,1.58v4.57Z"/>
  <path class="cls-1" d="M121.43,2.14h3.21c2.6,0,4,1.91,4,3.84s-1.42,3.88-4,3.88h-3.21c.23-.29.35-.84.35-1.58V3.72c0-.74-.12-1.29-.35-1.58M124.18,9.14c2.04,0,2.9-1.74,2.9-3.14s-.86-3.14-2.9-3.14h-.96v6.29h.96Z"/>
  <path class="cls-1" d="M138.05,8.61v1.25h-5.87c.23-.29.35-.84.35-1.58V3.72c0-.74-.12-1.29-.35-1.58h5.69v1.13c-.29-.23-.84-.35-1.58-.35h-2.31v2.69h1.82c.74,0,1.29-.12,1.58-.35v1.42c-.29-.23-.84-.35-1.58-.35h-1.82v2.77h1.92c1,0,1.75-.17,2.14-.47"/>
  <path class="cls-1" d="M148.37,8.53v1.33h-6.62l4.4-6.95h-1.55c-1.18,0-2.07.19-2.53.56v-1.33h6.23l-4.36,6.95h1.89c1.18,0,2.07-.19,2.53-.56"/>
  <polygon class="cls-1" points="34.04 18.26 34.04 20.01 36.03 20.01 36.03 20.59 34.04 20.59 34.04 22.84 33.4 22.84 33.4 17.69 36.18 17.69 36.18 18.26 34.04 18.26"/>
  <path class="cls-1" d="M39.39,17.7v3.27c.01,1.96,2.49,1.84,2.49-.14v-3.13h.64v3.28c0,.98-.63,1.79-1.96,1.98-1.17,0-1.8-.9-1.8-1.89v-3.36h.64Z"/>
  <polygon class="cls-1" points="49.15 22.94 45.79 19.12 45.79 22.84 45.24 22.84 45.24 17.58 48.59 21.35 48.59 17.69 49.15 17.69 49.15 22.94"/>
  <path class="cls-1" d="M55.89,20.23c0,1.3-.83,2.61-2.6,2.61h-1.41v-5.15h.07l1.54-.04c1.57-.04,2.41,1.27,2.41,2.58M55.17,20.42c0-.88-.55-2.19-1.92-2.19-.15,0-.46,0-.74,0v3.98c.23.04.49.07.74.06,1.4-.04,1.92-1.04,1.92-1.85"/>
  <path class="cls-1" d="M61.29,21.57h-2.21l-.56,1.26h-.61l2.34-5.26,2.31,5.26h-.72l-.55-1.26ZM61.05,21l-.85-1.94-.86,1.94h1.71Z"/>
  <path class="cls-1" d="M68.9,20.23c0,1.3-.83,2.61-2.6,2.61h-1.41v-5.15h.07l1.54-.04c1.57-.04,2.41,1.27,2.41,2.58M68.18,20.42c0-.88-.55-2.19-1.92-2.19-.15,0-.46,0-.74,0v3.98c.23.04.49.07.74.06,1.4-.04,1.92-1.04,1.92-1.85"/>
  <path class="cls-1" d="M71.34,20.31c0-1.31.83-2.58,2.5-2.73,1.66,0,2.49,1.35,2.49,2.59,0,1.31-.83,2.65-2.5,2.8-1.66,0-2.49-1.35-2.49-2.66M75.63,20.21c0-.96-.6-2.1-1.8-2.1-1.2.11-1.79,1.13-1.79,2.15s.61,2.18,1.8,2.18c1.21-.11,1.79-1.21,1.79-2.23"/>
  <polygon class="cls-1" points="84.71 22.26 84.71 22.84 81.86 22.84 81.86 17.69 84.63 17.69 84.63 18.26 82.5 18.26 82.5 19.87 84.49 19.87 84.49 20.44 82.5 20.44 82.5 22.26 84.71 22.26"/>
  <polygon class="cls-1" points="91.19 22.94 87.84 19.12 87.84 22.84 87.29 22.84 87.29 17.58 90.64 21.35 90.64 17.69 91.19 17.69 91.19 22.94"/>
  <polygon class="cls-1" points="97.12 22.84 97.12 19.16 96.53 19.16 97.76 17.5 97.76 22.84 97.12 22.84"/>
  <path class="cls-1" d="M104.17,19.44c0,1.38-1.03,2.18-2.43,3.51h-.76c.65-.61,1.29-1.17,1.77-1.74l-.04.02c-1.32.36-2.19-.52-2.19-1.7,0-.98.72-1.74,1.96-1.96,1.18,0,1.68.96,1.68,1.86M103.47,19.53c0-1.88-2.25-1.92-2.25-.08,0,.71.54,1.35,1.24,1.35.23,0,.46-.07.71-.21.21-.4.3-.8.3-1.07"/>
  <polygon class="cls-1" points="109.36 17.69 107.23 22.84 106.45 22.84 108.55 18.28 106.27 18.28 106.27 17.69 109.36 17.69"/>
  <path class="cls-1" d="M114.96,21.32c0,.77-.5,1.4-1.76,1.63-1.21,0-1.63-.77-1.63-1.51,0-.56.24-1.12.88-1.43-.45-.22-.64-.63-.64-1.09,0-.68.43-1.13,1.51-1.35,1.02,0,1.4.62,1.4,1.23,0,.4-.15.82-.63,1.13.61.24.87.83.87,1.39M112.27,21.28c0,1.55,2,1.44,2,.23,0-1.57-2-1.71-2-.23M114.04,18.92c0-1.13-1.54-1.22-1.54-.14,0,1.18,1.54,1.3,1.54.14"/>
</svg>