<?xml version="1.0" encoding="UTF-8"?>
<svg id="Capa_5" data-name="Capa 5" xmlns="http://www.w3.org/2000/svg" viewBox="0 0 74.12 74.12">
  <defs>
    <style>
      .cls-1 {
        fill: #fff;
        stroke-width: 0px;
      }
    </style>
  </defs>
  <g>
    <path class="cls-1" d="M34.86,11.01h4.27c.47,0,.86-.38.86-.85s-.38-.85-.86-.85h-4.27v1.71ZM34.86,15.16h4.4c.54,0,.97-.44.97-.98s-.44-.98-.97-.98h-4.4v1.95ZM41.73,12.02c.58.57.94,1.36.94,2.23,0,1.72-1.39,3.11-3.11,3.11h-7.14V7.1h7.02c1.65,0,2.98,1.34,2.98,2.99,0,.73-.26,1.4-.7,1.92Z"/>
    <path class="cls-1" d="M43.37,29.57h-2.62l-.83-1.71h-5.74l-.83,1.71h-2.62l5.13-10.25h2.38l5.13,10.25ZM37.05,21.94l-1.8,3.72h3.6l-1.8-3.72Z"/>
    <polygon class="cls-1" points="40.54 31.77 43.47 31.77 38.28 38.44 38.28 42.02 35.83 42.02 35.83 38.44 30.64 31.77 33.57 31.77 37.05 36.43 40.54 31.77"/>
    <polygon class="cls-1" points="54.13 31.77 54.13 33.96 47.29 33.96 47.29 35.67 53.88 35.67 53.88 37.87 47.29 37.87 47.29 39.82 54.13 39.82 54.13 42.02 44.85 42.02 44.85 31.77 54.13 31.77"/>
    <path class="cls-1" d="M61.67,38.11h-1.83v3.91h-2.44v-10.25h6.23c1.75,0,3.16,1.43,3.16,3.18,0,1.44-.96,2.66-2.28,3.05l3.01,4.03h-2.93l-2.93-3.91ZM63.38,33.96h-3.55v1.95h3.55c.54,0,.97-.44.97-.98s-.43-.97-.97-.98Z"/>
    <path class="cls-1" d="M31.77,42.02h-2.62l-.82-1.71h-5.74l-.83,1.71h-2.62l5.13-10.25h2.38l5.13,10.25ZM25.46,34.39l-1.8,3.72h3.6l-1.8-3.72Z"/>
    <path class="cls-1" d="M9.98,35.68h4.27c.47,0,.86-.38.86-.85s-.38-.85-.86-.85h-4.27s0,1.71,0,1.71ZM9.98,39.83h4.4c.54,0,.97-.44.97-.98s-.43-.98-.97-.98h-4.4v1.95ZM16.85,36.68c.58.57.94,1.36.94,2.23,0,1.72-1.39,3.11-3.11,3.11h-7.14v-10.25h7.02c1.65,0,2.98,1.34,2.98,2.99,0,.73-.26,1.4-.7,1.92Z"/>
    <polygon class="cls-1" points="41.69 44.21 41.69 46.41 34.86 46.41 34.86 48.12 41.45 48.12 41.45 50.31 34.86 50.31 34.86 52.27 41.69 52.27 41.69 54.46 32.42 54.46 32.42 44.21 41.69 44.21"/>
    <path class="cls-1" d="M39.98,60.08c0-.54-.43-.97-.97-.98h-4.15v1.95h4.15c.54,0,.97-.44.97-.97ZM32.42,67.16v-10.25h6.85c1.74.01,3.15,1.43,3.15,3.18,0,1.33-.82,2.47-1.97,2.94l3.08,4.13h-2.93l-2.93-3.9h-2.81v3.9h-2.44Z"/>
  </g>
  <path class="cls-1" d="M74.05,34.76C72.86,15.37,56.76,0,37.06,0S1.26,15.37.07,34.76c.05.78.12,1.55.21,2.31.8,6.45,3.26,12.39,6.94,17.37,6.75,9.14,17.6,15.08,29.84,15.08-17.13,0-31.2-13.34-32.39-30.17-.05-.76-.08-1.52-.08-2.3s.03-1.54.08-2.3C5.86,17.93,19.93,4.59,37.06,4.59c12.24,0,23.09,5.94,29.84,15.08,3.68,4.99,6.14,10.94,6.93,17.4.09.75.17,1.51.21,2.28.05-.76.07-1.52.07-2.3s-.03-1.54-.07-2.3"/>
  <path class="cls-1" d="M.07,39.36c1.19,19.4,17.29,34.76,36.99,34.76s35.8-15.37,36.99-34.76c-.05-.78-.12-1.55-.21-2.31-.8-6.45-3.26-12.39-6.94-17.37-6.75-9.14-17.6-15.08-29.84-15.08,17.13,0,31.2,13.34,32.39,30.17.05.76.08,1.52.08,2.3s-.03,1.54-.08,2.3c-1.18,16.84-15.25,30.17-32.39,30.17-12.24,0-23.09-5.94-29.84-15.08-3.68-4.99-6.14-10.94-6.93-17.4-.09-.75-.17-1.51-.21-2.28-.05.76-.07,1.52-.07,2.3s.03,1.54.07,2.3"/>
</svg>