<?xml version="1.0" encoding="UTF-8"?>
<svg id="Capa_5" data-name="Capa 5" xmlns="http://www.w3.org/2000/svg" viewBox="0 0 107.14 29.62">
  <defs>
    <style>
      .cls-1 {
        fill: #fff;
        stroke-width: 0px;
      }
    </style>
  </defs>
  <g id="IaSoo8.tif">
    <g>
      <path class="cls-1" d="M61.18,29.27c1.49.03,2.96-.48,4.34-1.26,2.04-1.15,3.7-2.74,5.13-4.56,3.95-5.01,6.57-10.65,7.89-16.89.3-1.4.45-2.83.12-4.26-.26-1.12-.77-2.02-2.01-2.26-.89-.17-1.6.23-2.26.75-1.29,1.01-2.24,2.32-3.1,3.69-1.69,2.69-3.32,5.43-4.99,8.13-.64,1.04-1.3,2.09-2.28,2.86-1.36,1.08-2.82.89-3.76-.58-.57-.9-1.02-1.89-1.42-2.88-1.14-2.82-2.2-5.67-3.34-8.5-.42-1.04-.94-2.04-1.76-2.84-.53-.51-1.15-.75-1.92-.62-1.01.17-1.6.81-2.05,1.64-.68,1.25-.93,2.62-1,4-.09,1.77,0,3.55.23,5.31.42,3.15,1.16,6.21,2.35,9.16,1.02,2.53,2.31,4.9,4.31,6.79,1.5,1.42,3.24,2.33,5.5,2.3ZM0,7.43c.07.85.16,2.06.28,3.26.32,2.98,1.01,5.87,2.06,8.68.95,2.55,2.16,4.96,4.01,6.99,3,3.28,6.76,3.84,10.6,1.6,2.09-1.22,3.76-2.89,5.24-4.77,2.95-3.75,5.06-7.95,6.56-12.46.8-2.4,1.48-4.83,1.33-7.39-.04-.7-.23-1.42-.52-2.06-.48-1.07-1.66-1.5-2.76-1.07-.49.19-.97.49-1.37.83-1.51,1.31-2.58,2.97-3.62,4.65-1.36,2.2-2.67,4.43-4.02,6.63-.68,1.11-1.37,2.21-2.36,3.09-1.31,1.17-2.84,1-3.86-.41-.18-.25-.36-.52-.49-.8-.43-.97-.87-1.93-1.26-2.92-1.03-2.59-2-5.21-3.07-7.79-.37-.9-.9-1.76-1.49-2.53-.93-1.22-2.51-1.25-3.54-.11-.38.42-.69.94-.92,1.47C.16,3.82.07,5.44,0,7.43ZM107.14,24.27c-.19-1.78-.34-3.48-.55-5.18-.37-2.95-.93-5.86-1.81-8.7-.81-2.61-1.85-5.11-3.58-7.27-2.73-3.41-6.69-4.08-10.37-1.75-1.5.95-2.72,2.2-3.82,3.56-2.24,2.75-3.97,5.82-5.56,8.97-1.51,2.97-2.96,5.97-3.89,9.18-.39,1.35-.74,2.7-.51,4.13.2,1.26,1.11,2.06,2.37,2.04.96-.02,1.74-.5,2.46-1.08,1.27-1,2.28-2.25,3.22-3.54,1.64-2.23,3.21-4.5,4.87-6.71.69-.91,1.53-1.72,2.36-2.5.47-.45,1.12-.61,1.79-.55.89.07,1.54.58,1.92,1.31.72,1.35,1.37,2.75,1.99,4.15.82,1.87,1.51,3.8,2.38,5.65.42.89,1.02,1.74,1.72,2.43,1.61,1.59,3.96.93,4.55-1.25.26-.95.32-1.96.46-2.9ZM32.56,19.24c.17,1.64.28,3.3.52,4.93.2,1.41.63,2.77,1.45,3.96.61.88,1.37,1.57,2.54,1.49.82-.06,1.45-.52,2.02-1.06,1.02-.97,1.74-2.16,2.33-3.42,1.92-4.14,2.62-8.56,2.85-13.07.07-1.46,0-2.93-.08-4.39-.07-1.54-.37-3.05-.91-4.5-.34-.92-.78-1.78-1.52-2.45-.9-.82-1.95-.98-2.95-.3-.63.43-1.22.97-1.7,1.56-1.14,1.39-1.86,3.02-2.44,4.71-1.4,4.06-1.95,8.26-2.11,12.54Z"/>
      <path class="cls-1" d="M61.18,29.27c-2.26.03-4-.87-5.5-2.3-2.01-1.9-3.29-4.27-4.31-6.79-1.19-2.95-1.93-6.01-2.35-9.16-.23-1.77-.32-3.54-.23-5.31.07-1.39.32-2.76,1-4,.45-.83,1.04-1.47,2.05-1.64.77-.13,1.39.11,1.92.62.82.8,1.34,1.8,1.76,2.84,1.13,2.82,2.2,5.68,3.34,8.5.4.99.85,1.98,1.42,2.88.94,1.47,2.39,1.66,3.76.58.98-.78,1.63-1.82,2.28-2.86,1.67-2.71,3.3-5.44,4.99-8.13.86-1.36,1.81-2.68,3.1-3.69.66-.52,1.38-.92,2.26-.75,1.23.24,1.75,1.14,2.01,2.26.33,1.43.17,2.86-.12,4.26-1.31,6.24-3.93,11.88-7.89,16.89-1.43,1.82-3.09,3.41-5.13,4.56-1.39.78-2.86,1.28-4.34,1.26Z"/>
      <path class="cls-1" d="M0,7.43c.07-1.98.16-3.61.82-5.13.23-.52.53-1.05.92-1.47,1.03-1.14,2.61-1.1,3.54.11.59.78,1.12,1.64,1.49,2.53,1.07,2.58,2.04,5.19,3.07,7.79.39.98.82,1.95,1.26,2.92.13.28.31.55.49.8,1.02,1.41,2.56,1.57,3.86.41.98-.88,1.68-1.98,2.36-3.09,1.35-2.2,2.66-4.43,4.02-6.63,1.04-1.68,2.11-3.34,3.62-4.65.4-.35.88-.64,1.37-.83,1.09-.43,2.28,0,2.76,1.07.29.64.48,1.36.52,2.06.15,2.56-.53,5-1.33,7.39-1.5,4.51-3.61,8.71-6.56,12.46-1.48,1.88-3.15,3.55-5.24,4.77-3.85,2.25-7.6,1.69-10.6-1.6-1.86-2.03-3.06-4.44-4.01-6.99-1.05-2.81-1.74-5.7-2.06-8.68-.13-1.2-.21-2.4-.28-3.26Z"/>
      <path class="cls-1" d="M107.14,24.27c-.14.94-.2,1.94-.46,2.9-.59,2.18-2.94,2.84-4.55,1.25-.7-.69-1.3-1.54-1.72-2.43-.87-1.85-1.56-3.78-2.38-5.65-.61-1.41-1.27-2.8-1.99-4.15-.39-.73-1.03-1.23-1.92-1.31-.67-.06-1.32.11-1.79.55-.83.79-1.67,1.59-2.36,2.5-1.67,2.2-3.24,4.48-4.87,6.71-.95,1.29-1.96,2.53-3.22,3.54-.72.57-1.49,1.06-2.46,1.08-1.27.02-2.17-.78-2.37-2.04-.23-1.43.12-2.79.51-4.13.93-3.21,2.38-6.21,3.89-9.18,1.6-3.15,3.33-6.22,5.56-8.97,1.11-1.36,2.33-2.61,3.82-3.56,3.69-2.33,7.64-1.66,10.37,1.75,1.73,2.16,2.77,4.66,3.58,7.27.88,2.84,1.45,5.75,1.81,8.7.21,1.7.36,3.41.55,5.18Z"/>
      <path class="cls-1" d="M32.56,19.24c.16-4.29.71-8.49,2.11-12.54.58-1.69,1.3-3.32,2.44-4.71.49-.59,1.07-1.14,1.7-1.56,1.01-.68,2.05-.51,2.95.3.74.67,1.18,1.54,1.52,2.45.54,1.45.84,2.96.91,4.5.07,1.46.15,2.93.08,4.39-.23,4.51-.93,8.93-2.85,13.07-.59,1.27-1.31,2.45-2.33,3.42-.57.54-1.2,1-2.02,1.06-1.17.08-1.93-.6-2.54-1.49-.82-1.19-1.25-2.55-1.45-3.96-.24-1.63-.35-3.29-.52-4.93Z"/>
    </g>
  </g>
</svg>