<?xml version="1.0" encoding="UTF-8"?>
<svg id="Capa_5" data-name="Capa 5" xmlns="http://www.w3.org/2000/svg" viewBox="0 0 147.98 17.58">
  <defs>
    <style>
      .cls-1 {
        fill: #fff;
        stroke-width: 0px;
      }
    </style>
  </defs>
  <g id="GDCI3m">
    <g>
      <path class="cls-1" d="M35.64,8.8c.41-.83.76-1.55,1.11-2.27,1.01-2.08,2.03-4.15,3.04-6.23.1-.21.23-.29.47-.29,1.91,0,3.82,0,5.73,0,.28,0,.4.07.4.38,0,5.59,0,11.18,0,16.77,0,.12-.02.25-.04.42-.15,0-.29,0-.42,0-1.86,0-3.72,0-5.58,0-.33,0-.43-.09-.43-.43.01-2.59,0-5.18,0-7.78,0-.11,0-.22,0-.34-.04-.01-.07-.03-.11-.04-1.38,2.81-2.76,5.63-4.18,8.55-1.42-2.9-2.79-5.7-4.16-8.51l-.13.03v8.48h-6.44c0-.15-.02-.28-.02-.41,0-5.58,0-11.15,0-16.73,0-.32.09-.41.41-.4,1.9.01,3.79.02,5.69,0,.35,0,.46.18.58.43,1.1,2.27,2.21,4.54,3.31,6.81.24.49.48.97.78,1.56Z"/>
      <path class="cls-1" d="M69.98,17.55c-.17,0-.29.02-.41.02-1.87,0-3.74,0-5.61,0-.32,0-.46-.1-.53-.42-.18-.72-.42-1.43-.61-2.15-.06-.24-.18-.32-.42-.32-2.1,0-4.2,0-6.29,0-.23,0-.34.08-.4.3-.21.77-.43,1.53-.67,2.29-.04.12-.2.28-.31.28-2.02.02-4.04,0-6.07,0-.04,0-.07-.02-.15-.04.22-.76.43-1.52.65-2.28,1.02-3.57,2.05-7.13,3.07-10.7.4-1.4.81-2.79,1.21-4.18.07-.26.21-.35.48-.35,3.58,0,7.15,0,10.73,0,.28,0,.36.12.43.35.92,3.21,1.84,6.43,2.76,9.64.68,2.35,1.35,4.7,2.03,7.05.04.15.08.31.12.5ZM59.31,2.85s-.08,0-.12-.01c-.85,2.97-1.71,5.94-2.57,8.94h5.26c-.87-3.01-1.72-5.97-2.56-8.93Z"/>
      <path class="cls-1" d="M124.56,8.77c.49.19,1,.32,1.44.57,1.49.83,2.28,2.11,2.3,3.82.02,1.35,0,2.7,0,4.06,0,.1-.01.2-.02.32h-6.32c0-.14,0-.29,0-.44,0-1.26,0-2.53,0-3.79,0-1.8-1.23-3.02-3.02-3.01-.27,0-.53.02-.8,0-.36-.03-.48.09-.48.46.02,2,0,3.99,0,5.99,0,.26,0,.53,0,.81h-6.56c0-.16-.02-.31-.02-.45,0-5.55,0-11.1-.01-16.65,0-.33.08-.43.42-.43,4.13.01,8.27,0,12.4.01,1.95,0,3.58,1.17,4.19,2.97.59,1.73.02,3.67-1.41,4.81-.56.45-1.19.76-1.9.88-.07.01-.13.04-.2.07ZM117.68,7.29c.55,0,1.04.01,1.54,0,.87-.03,1.58-.4,2.12-1.08,1.29-1.62.54-3.7-1.49-4.08-.6-.11-1.23-.06-1.85-.09-.27-.02-.34.09-.34.35.01,1.49,0,2.98,0,4.47,0,.14.01.27.02.43Z"/>
      <path class="cls-1" d="M130.78.04c.15-.01.28-.03.42-.03,5.44,0,10.87,0,16.31,0,.37,0,.48.11.47.47-.03.66-.02,1.31,0,1.97,0,.32-.09.44-.43.44-3.29,0-6.57,0-9.86,0-.37,0-.5.08-.49.48.03,1.17,0,2.35,0,3.53,0,.15.01.3.02.48h10.74c0,.52,0,.99,0,1.47,0,.33-.02.66,0,.99.02.33-.09.44-.42.44-1.37-.02-2.73,0-4.1,0-1.95,0-3.89,0-5.84,0-.32,0-.41.09-.41.4.02,1.33,0,2.65,0,4.02.18.01.33.04.49.04,3.29,0,6.57,0,9.86-.01.32,0,.41.09.4.41-.02.81,0,1.61,0,2.45h-17.18V.04Z"/>
      <path class="cls-1" d="M78.56,17.55h-6.43c-.01-.1-.03-.19-.03-.27,0-5.61,0-11.23-.01-16.84,0-.32.1-.41.41-.41,3.93,0,7.87-.02,11.8.02,2.11.02,3.68,1.06,4.55,2.97.88,1.93.62,3.78-.75,5.42-.99,1.19-2.29,1.79-3.85,1.8-1.73,0-3.46,0-5.2,0q-.49,0-.49.51c0,2.05,0,4.1,0,6.15,0,.21,0,.42,0,.66ZM78.71,7.28c.54,0,1.05,0,1.55,0,.78-.01,1.43-.33,1.94-.89,1.2-1.3,1.14-3.67-1.11-4.2-.65-.15-1.35-.1-2.03-.16-.31-.03-.39.09-.39.39.01,1.49,0,2.98,0,4.47,0,.13.02.27.02.39Z"/>
      <path class="cls-1" d="M108.8.01c0,.92,0,1.79,0,2.66,0,.07-.12.17-.21.2-.09.04-.2.01-.3.01-3.26,0-6.52,0-9.79-.01-.36,0-.48.09-.47.47.02,1.15,0,2.3,0,3.45q0,.58.56.58c3.26,0,6.52,0,9.79,0,.12,0,.25,0,.41,0,0,.91,0,1.79,0,2.67,0,.07-.1.16-.18.19-.1.03-.22.01-.34.01-3.26,0-6.52,0-9.79-.01-.38,0-.46.12-.46.47.01,2.1,0,4.2,0,6.3,0,.17,0,.35,0,.55-.15.01-.26.03-.37.03-1.88,0-3.77,0-5.65,0-.32,0-.44-.07-.43-.42,0-5.54,0-11.08,0-16.61,0-.54,0-.54.53-.54,5.4,0,10.8,0,16.2,0,.15,0,.3,0,.49,0Z"/>
      <path class="cls-1" d="M17.49,8.89c-.03,4.78-4,8.72-8.75,8.68C3.87,17.54-.03,13.61,0,8.78.04,3.87,3.96.04,8.94.07c4.7.03,8.58,4.04,8.56,8.83ZM16.66,8.82c-.01-4.42-3.54-7.93-7.95-7.93-4.37,0-7.89,3.56-7.89,7.96,0,4.37,3.58,7.91,8,7.9,4.32-.01,7.85-3.59,7.84-7.94Z"/>
      <path class="cls-1" d="M9.16,10.52c0,.78-.01,1.52,0,2.26,0,.32-.1.42-.41.41-.31,0-.46-.06-.45-.42.03-.73,0-1.46,0-2.27-.45,0-.87,0-1.29,0-.85,0-1.69,0-2.54.02-1.08.04-1.73-.79-1.45-1.81.29-1.1.83-2.03,1.72-2.73.21-.17.53-.19.8-.28.11-.04.27-.06.31-.15.26-.52.71-.76,1.25-.9,1.19-.3,2.37-.31,3.54.1.4.14.69.39.91.75.05.09.19.18.29.17.47-.02.82.21,1.14.51.71.68,1.19,1.49,1.44,2.45.3,1.15-.27,1.88-1.46,1.88-1.12,0-2.25,0-3.37,0-.14,0-.27,0-.43,0ZM8.77,5.22c-.58.12-1.14.2-1.68.35-.48.13-.6.46-.37.88.57,1.01,1.16,2,1.75,3,.17.28.37.28.54-.01.6-1.01,1.19-2.02,1.77-3.04.21-.37.09-.69-.32-.81-.55-.16-1.12-.25-1.69-.37ZM5.68,9.65c.42,0,.83,0,1.25,0,.5,0,.58-.12.34-.56-.42-.76-.86-1.52-1.3-2.27-.21-.35-.46-.4-.78-.12-.73.62-1.17,1.41-1.36,2.34-.08.39.11.59.52.6.44,0,.88,0,1.33,0ZM11.77,9.65c.47,0,.93,0,1.4,0,.39,0,.55-.18.49-.54-.17-.98-.65-1.79-1.4-2.44-.24-.21-.55-.16-.71.11-.47.8-.94,1.6-1.39,2.42-.16.28-.04.44.29.45.44,0,.88,0,1.32,0Z"/>
    </g>
  </g>
</svg>