<?xml version="1.0" encoding="UTF-8"?>
<svg id="Capa_5" data-name="Capa 5" xmlns="http://www.w3.org/2000/svg" viewBox="0 0 92.01 69.16">
  <defs>
    <style>
      .cls-1 {
        fill: #fff;
        stroke-width: 0px;
      }
    </style>
  </defs>
  <path class="cls-1" d="M63.44,32.47c.79.41,1.49.28,2.14.4.58.11,1.18.24,1.41.76.26.6-.17,1.14-.56,1.58-.84.97-1.9,1.66-3.01,2.28-3.96,2.23-8.13,3.61-12.75,2.96-1.12-.16-2.05-.14-3.09.49-1.75,1.06-3.8,1.24-5.81,1.1-2.83-.2-5.64-.64-8.36-1.51-.7-.22-1.35-.54-1.92-1.02-.74-.63-1.18-1.35-.86-2.36.22-.71-.3-.8-.78-.91-2.55-.59-4.91-1.62-7.1-3.04-2.68-1.73-4.98-3.83-6.51-6.68-.4-.74-.56-1.53-.42-2.37.16-.92.85-1.5,1.79-1.62,2.16-.27,4.17.43,6.21.94.36.09.86.45,1.09.14.29-.39-.31-.63-.52-.92-1.44-1.99-3.12-3.84-3.97-6.2-.83-2.31-1.2-4.68-.56-7.11.97-3.69,4.62-5.22,7.44-5.26,3.39-.05,6.07,1.53,8.47,3.75,1.71,1.58,2.9,3.56,4.34,5.35.19.24.31.59.69.52.34-.06.34-.41.42-.67.67-2.11,1.28-4.25,2.2-6.27,1.76-3.85,4.72-6.23,9-6.73,3.12-.37,5.94.39,8.2,2.66,1.74,1.74,2.49,3.95,2.78,6.36.36,2.96-.54,5.67-1.58,8.35-.06.16-.14.31-.19.47-.06.23-.26.49-.04.71.24.23.47,0,.69-.1,1.81-.84,3.62-1.69,5.44-2.51.98-.44,2.03-.64,3.11-.69,3.35-.14,5.1,1.8,4.44,5.25-.56,2.98-2.29,5.27-4.47,7.27-2.03,1.86-4.39,3.22-6.88,4.37-.12.06-.24.11-.51.24ZM53.11,39.26c3.47-.08,6.37-.86,9.06-2.4.46-.26,1.08-.57.98-1.14-.11-.64-.84-.53-1.34-.62-1.1-.2-2.22-.35-3.26-.79-.9-.38-.99-.91-.29-1.6.39-.39.88-.59,1.38-.79,2.89-1.18,5.79-2.38,8.36-4.17,1.67-1.16,3-2.66,3.56-4.67.56-2.02-.87-3.53-2.94-3.19-.67.11-1.31.3-1.93.59-2.56,1.21-5.14,2.41-7.7,3.63-.65.31-1.33.44-2.04.44-1.11,0-1.62-.56-1.44-1.66.09-.52.3-1.02.47-1.53.84-2.47,1.85-4.88,2.58-7.4.63-2.2.51-5.14-2.14-6.78-1.67-1.03-3.46-1.42-5.39-.68-1.99.75-3.15,2.29-3.99,4.12-1.17,2.57-1.75,5.34-2.64,8-.26.8-.62,1.53-1.31,2.01-1.04.72-2.28.49-3.35-.76-1.57-1.84-3.06-3.74-4.53-5.66-1.33-1.74-2.75-3.32-4.92-4.06-2.76-.94-5.04.1-5.97,2.85-.51,1.49-.2,2.94.46,4.33,1.08,2.26,2.73,4.11,4.37,5.96.78.88,1.59,1.75,2.35,2.65.36.42.55.97.27,1.49-.27.51-.79.68-1.37.65-.2-.01-.4,0-.59-.04-1.27-.24-2.54-.5-3.81-.75-1.63-.32-3.19-.93-4.86-1.05-1.24-.09-1.82.67-1.38,1.82.38,1,.94,1.93,1.77,2.63,1.66,1.39,3.54,2.38,5.61,3.02,2.23.69,4.51,1.17,6.8,1.64,2.04.42,2.2,1.03.8,2.57-.45.49-.45.91-.02,1.4.24.28.53.42.84.51,2.5.74,5.05,1.14,7.66.88.91-.09,1.76-.4,2.41-1.09,1.02-1.09,2.22-1.4,3.68-1.02,1.35.35,2.72.76,3.78.64Z"/>
  <path class="cls-1" d="M0,62.38c0-1.01,0-2.03,0-3.04,0-2.64,1.16-4.68,3.48-5.83,3.32-1.65,6.71-1.6,9.89.4,1.83,1.15,2.76,2.95,2.82,5.11.06,2.36,0,4.73.03,7.09,0,.55-.19.66-.67.64-.76-.03-1.52-.04-2.28,0-.5.02-.61-.17-.6-.63.02-2.31.01-4.62,0-6.93,0-1.27-.37-2.45-1.07-3.5-1.72-2.59-5.43-2.52-7.07.12-.75,1.21-1.03,2.54-1.02,3.95.01,2.08-.02,4.17.02,6.25.01.61-.19.78-.77.74-.73-.04-1.46-.03-2.19,0-.44.02-.58-.13-.57-.58.03-1.27,0-2.53,0-3.8Z"/>
  <path class="cls-1" d="M30.27,64.52c.13.74.11,1.27-.58,1.67-2.71,1.61-6.97.8-9.23-1.81-2.16-2.5-2.23-6.34-.15-8.86,3.34-4.05,10.54-3.86,13.44.37.78,1.14,1.21,2.41,1.21,3.8.01,2.11-.02,4.22.02,6.33.01.61-.18.77-.76.73-.73-.05-1.46-.05-2.19,0-.53.03-.66-.15-.66-.66.03-2.19.02-4.39,0-6.58,0-1.38-.33-2.68-1.12-3.83-1.64-2.37-5.1-2.36-6.74.02-1.38,2-1.46,5.52-.16,7.56.87,1.37,2.2,1.87,3.75,1.89,1.07.01,2.12-.15,3.16-.63Z"/>
  <path class="cls-1" d="M38.36,55.1c0-2.64.02-5.29-.01-7.93,0-.61.18-.78.76-.74.73.05,1.46.05,2.19,0,.53-.03.67.14.66.66-.03,1.6.02,3.21-.03,4.81-.02.6.18.79.76.75.62-.04,1.24.03,1.85-.02.55-.05.64.18.64.67,0,1.59.02,1.59-1.56,1.59-1.74,0-1.71,0-1.69,1.71.03,2.22,0,4.44,0,6.66,0,.76.06,1.51.29,2.25.51,1.67,1.42,2.29,3.13,2.14.25-.02.62-.26.6.25-.02.37.24.82-.39,1.04-2.37.83-5.76-.74-6.66-3.11-.48-1.28-.58-2.63-.58-3.98,0-1.12,0-2.25,0-3.37,0-1.12,0-2.25,0-3.37,0,0,.01,0,.02,0Z"/>
  <path class="cls-1" d="M48.1,56.96c0-1.24.02-2.48-.01-3.71-.01-.47.12-.64.6-.62.76.04,1.52.04,2.28,0,.52-.03.67.14.66.66-.03,2.28-.02,4.56,0,6.83.01,1.63.48,3.13,1.66,4.29,2.15,2.12,5.51,1.37,6.84-1.48.46-.98.66-2.03.66-3.11,0-2.17.02-4.33-.01-6.5,0-.57.16-.73.71-.7.79.04,1.57.02,2.36,0,.36,0,.5.12.5.49-.02,2.39.08,4.79-.06,7.17-.2,3.45-2.24,5.71-5.64,6.42-2.7.57-5.33.4-7.7-1.19-1.85-1.24-2.79-3.04-2.84-5.27-.02-1.1,0-2.19,0-3.29Z"/>
  <path class="cls-1" d="M71.13,61.89c0,1.43-.03,2.87.01,4.3.01.53-.16.7-.67.65-.94-.08-2.18.39-2.75-.19-.46-.47-.17-1.7-.15-2.6.05-2.27-.23-4.56.16-6.82.66-3.87,3.76-5.18,7.41-4.58.78.13.39.73.45,1.14.07.46-.25.4-.54.36-2.71-.37-3.76,1.37-3.91,3.68-.09,1.34-.02,2.7-.02,4.05Z"/>
  <path class="cls-1" d="M87.33,64.53c.1.74.11,1.27-.59,1.67-2.5,1.44-6.38.91-8.63-1.23-2.31-2.21-2.96-5.66-1.48-8.34,1.25-2.26,3.32-3.41,5.77-3.84,2.89-.51,5.56.01,7.69,2.2,1.28,1.32,1.94,2.93,1.92,4.8-.02,2.08-.02,4.17,0,6.25,0,.54-.11.76-.69.72-.67-.05-1.35-.05-2.02,0-.64.05-.87-.11-.85-.82.05-2.05.02-4.11.01-6.16,0-1.37-.26-2.69-.99-3.87-1.71-2.75-5.64-2.65-7.13.22-1.14,2.2-1.16,4.51-.11,6.76.75,1.59,2.16,2.22,3.86,2.27,1.1.03,2.17-.16,3.25-.62Z"/>
</svg>