<?xml version="1.0" encoding="UTF-8"?>
<svg id="Capa_5" data-name="Capa 5" xmlns="http://www.w3.org/2000/svg" viewBox="0 0 110.06 29.36">
  <defs>
    <style>
      .cls-1 {
        fill: #fff;
        stroke-width: 0px;
      }
    </style>
  </defs>
  <g id="E1YaNn.tif">
    <g>
      <path class="cls-1" d="M30.81,29.05c-1.17-.27-2.29-.7-3.29-1.27-.96-.55-1.84-1.25-2.6-2.06-1.5-1.62-2.48-3.68-2.81-5.85-.2-1.34-.16-2.72.12-4.05,1.21-5.81,6.1-9.36,11.97-8.86,6.61.57,9.7,6.04,9.45,11.99-.04.91-.6.75-1.14.75-4.51,0-9.02,0-13.53,0-1.46,0-1.52.12-.88,1.44,1.79,3.68,7.14,4.54,10.37,1.55.86-.8,1.32-.64,1.99.02.23.23.49.42.74.63,1.98,1.65,1.95,1.62-.12,3.32-.81.67-1.75,1.14-2.72,1.53-.89.35-1.78.77-2.72.96-1.56.32-3.24.27-4.83-.1ZM32.88,16.16c1.44,0,2.89-.06,4.32.02,1.14.07,1.2-.38.93-1.29-.7-2.38-2.53-3.66-5.15-3.54-2.44.11-4.7,1.95-5.19,4.13-.15.65.13.69.63.68,1.49-.01,2.98,0,4.47,0Z"/>
      <path class="cls-1" d="M43.04,29.21c.2-.99.98-1.63,1.52-2.41,1.86-2.65,3.74-5.28,5.68-7.86.54-.72.5-1.19-.03-1.89-2.41-3.14-4.76-6.33-7.3-9.73,2.16,0,4.08,0,6,0,.53,0,.67.44.91.76,1.4,1.83,2.78,3.68,4.24,5.6,1.46-1.93,2.87-3.75,4.22-5.62.4-.55.81-.77,1.49-.75,1.72.04,3.43.01,5.16.01.09.53-.31.78-.54,1.09-2.17,2.93-4.34,5.87-6.56,8.77-.47.62-.5,1-.02,1.65,2.25,3.04,4.45,6.13,6.64,9.22.26.36.68.65.66,1.17h-6.14c-1.41-2.27-3.24-4.23-4.93-6.44-1.61,2.29-3.57,4.11-4.84,6.44h-6.14Z"/>
      <path class="cls-1" d="M.3,14.34c.23-1.19.66-2.33,1.4-3.37.62-.86,1.41-1.59,2.31-2.14,2.06-1.27,4.58-1.6,6.96-1.48,4.36.22,7.7,2.86,8.53,6.83.22,1.03.24,2.11.26,3.16.06,3.96.08,7.92.11,11.88h-5.3c.19-4.28.19-8.56,0-12.83-.12-2.7-1.69-4.14-4.32-4.29-2.81-.16-4.5,1.13-5,3.87-.13.72-.16,1.46-.16,2.2-.02,3.68-.01,7.37-.02,11.05-1.4,0-2.79-.04-4.19.02-.7.03-.86-.16-.86-.85,0-2.44-.02-4.89-.01-7.33,0-2.21-.16-4.54.28-6.71Z"/>
      <path class="cls-1" d="M97.8,29.06c-1.08-.22-2.12-.59-3.08-1.1-.78-.42-1.5-.94-2.11-1.57-1.27-1.32-1.95-3.05-2.12-4.85-.43-4.46-.09-8.94-.18-13.41-.01-.59.2-.86.81-.8.05,0,.09,0,.14,0,1.34.07,3.04-.55,3.91.23.83.74.22,2.44.25,3.72.04,2.44,0,4.89.02,7.33,0,.69.01,1.39.12,2.07.36,2.37,1.91,3.66,4.42,3.76,2.6.1,4.24-1.11,4.8-3.48.25-1.05.23-2.1.23-3.16,0-3.14.03-6.27-.02-9.41-.01-.84.19-1.15,1.08-1.09,1.06.08,2.14.05,3.21,0,.62-.02.79.21.79.8-.03,4.29.08,8.58-.06,12.86-.06,1.91-.75,3.75-2.04,5.17-.64.71-1.41,1.3-2.24,1.76-2.37,1.31-5.24,1.69-7.91,1.15Z"/>
      <path class="cls-1" d="M74.06,29.08c-.4-.1-.79-.23-1.18-.36-1.47-.5-2.8-1.1-3.84-2.29-1.13-1.3-1.65-2.99-1.66-4.7-.02-6.82.01-13.65-.03-20.47,0-.93.27-1.19,1.17-1.13,1.48.09,3.42-.48,4.32.25.95.76.26,2.76.29,4.22.05,2.69.01,2.69,2.66,2.69,3.03,0,2.96,0,3.06,2.99.04,1.26-.3,1.7-1.58,1.56-1.1-.11-2.23,0-3.34-.03-.61-.02-.81.21-.8.8.02,3.13-.03,6.27.02,9.4.03,1.65,1.03,2.45,2.96,2.65.87.09,2.13-.38,2.52.22.45.7.18,1.86.19,2.83,0,.49.02,1.02-.06,1.5-.06.32-4.17,0-4.53-.08-.05-.01-.1-.02-.16-.04Z"/>
      <path class="cls-1" d="M81.56,29.21c-.25-1.44.44-1.77,1.78-1.67,1.71.12,3.44.13,5.15,0,1.37-.11,2.11.2,2,1.68h-8.93Z"/>
    </g>
  </g>
</svg>