<?xml version="1.0" encoding="UTF-8"?>
<svg id="Capa_5" data-name="Capa 5" xmlns="http://www.w3.org/2000/svg" viewBox="0 0 130.03 30.96">
  <defs>
    <style>
      .cls-1 {
        opacity: .8;
      }

      .cls-1, .cls-2, .cls-3 {
        fill: #fff;
        stroke-width: 0px;
      }

      .cls-2 {
        opacity: .6;
      }
    </style>
  </defs>
  <path class="cls-1" d="M77.67.64c-1.62,0-2.86,1.93-3.76,3.79.12-.1.25-.2.4-.29,2.54-1.57,16.8,5.7,7.26,2.33-1.66-.59-3.02-.87-4.13-.94,2.82,1.21,5.91,16.2,2.62,6.93-2-5.64-4.57-6.23-6.3-5.81.4.18-1.2,3.02-1.2,3.02,0,0-.1-.51-.12-1.23-.32.59-.64,1.15-.84,1.47-2.44,6.53-3.15,15.04-3.15,15.04,0,0-1.99,1.14-2.17,1.06-.1-5.76,3.32-13.34,5.62-17.63.01-.24,0-.5-.04-.76l-.04-.23c-1.3-1.25-4.07-2.42-8.56,2.78-6.54,7.58,2.09-5.68,5.09-5.56,1.04.04,1.89.53,2.54,1.14-.99-1-2.87-1.85-6.29-2.14-10.12-.88,5.96-1.59,7.58.88l.1.17c.97-4.15,6.35-4.22,6.35-4.1,0,.03-.29.07-.99.07h0Z"/>
  <path class="cls-2" d="M56.86.1c1.62,0,2.86,1.93,3.76,3.79-.12-.1-.26-.2-.4-.28-2.54-1.57-16.81,5.7-7.26,2.33,1.67-.59,3.02-.87,4.13-.94-2.83,1.22-5.92,16.2-2.63,6.93,2-5.64,4.58-6.23,6.3-5.81-.4.17-.69.57-.69,1.03,0,.62.52,1.12,1.15,1.12.24,0,.47-.07.65-.2.12.61.08,1.06.08,1.06,0,0,.1-.5.12-1.23.32.59.64,1.15.84,1.48,2.44,6.53,3.15,15.04,3.15,15.04,0,0,1.99,1.15,2.17,1.06.1-5.76-3.32-13.34-5.62-17.63-.01-.24,0-.5.04-.76l.05-.22c1.3-1.25,4.07-2.42,8.55,2.78,6.54,7.58-2.09-5.67-5.09-5.56-1.04.04-1.88.53-2.54,1.14.99-1,2.87-1.85,6.29-2.15,10.12-.88-5.96-1.59-7.58.88l-.1.17C61.25-.02,55.88-.09,55.87.03c0,.03.29.07.99.07h0Z"/>
  <path class="cls-3" d="M56.72,1.26c-.97,0-1.34-.06-1.63-.32l.98,2.15c.95-.26,1.8-.44,2.42-.52-.75-1.04-1.35-1.31-1.76-1.31Z"/>
  <path class="cls-3" d="M130.03,13.49s-.09.04-.15.08c-.35.15-.58.23-.8.31-.21.08-.32.24-.32.48,0,2.3,0,4.6.02,6.91.03,2.3-.05,4.6-.23,6.89-.02.08-.07.14-.17.16-.09.03-.17.01-.25-.04-.91-.75-1.81-1.54-2.69-2.38-.88-.84-1.75-1.7-2.61-2.59-.85-.89-1.69-1.79-2.52-2.69l-2.46-2.67c-.24-.27-.44-.5-.61-.68l-.63-.68c-.04.4-.06.78-.06,1.14,0,.69.01,1.37.04,2.05l.09,2.03.08,2.09c.03.67.04,1.36.04,2.05,0,.33.03.59.08.79.06.19.13.34.21.45.1.11.21.19.34.25.13.04.26.07.38.1.14.03.28.07.43.13.15.04.31.11.46.21.1.06.13.12.09.21-.04.07-.12.1-.23.1l-2.69-.06c-.37-.01-.74.01-1.13.06-.38.04-.74.03-1.08-.04-.13-.03-.18-.09-.17-.19.03-.1.11-.16.24-.19l.3-.06c.32-.07.59-.21.78-.41.21-.22.32-.5.32-.85v-13.03c0-.11.03-.2.09-.27.06-.08.13-.17.21-.25.11-.08.23-.08.34,0,3.91,3.9,7.74,7.86,11.47,11.87v-.31c.01-.11.02-.22.02-.33,0-1.51-.03-3.03-.09-4.53-.04-1.5-.06-3.01-.06-4.53,0-.32-.04-.57-.11-.74-.07-.18-.16-.31-.27-.39-.1-.1-.21-.16-.34-.19l-.38-.08-.42-.08c-.11-.03-.21-.08-.28-.16-.09-.06-.11-.12-.09-.19.04-.07.12-.1.24-.1h3.03c.51-.01,1.02,0,1.53.02l.04.35h0ZM112.42,20.94c0-.9-.13-1.79-.4-2.67-.27-.9-.67-1.7-1.21-2.4-.52-.7-1.17-1.28-1.95-1.72-.77-.44-1.65-.66-2.65-.66-.94,0-1.79.17-2.52.51-.72.33-1.33.79-1.84,1.39-.49.58-.88,1.26-1.14,2.05-.25.77-.38,1.6-.38,2.48s.13,1.79.4,2.69c.28.9.69,1.7,1.23,2.42.54.72,1.19,1.3,1.97,1.76.79.44,1.69.66,2.69.66.95,0,1.78-.17,2.5-.52.72-.36,1.32-.83,1.8-1.43.49-.59.87-1.28,1.12-2.07.26-.8.38-1.63.38-2.5h0ZM114.56,20.98c0,1.06-.19,2.01-.57,2.83-.38.83-.91,1.55-1.57,2.15-.65.61-1.41,1.11-2.29,1.51-.88.4-1.81.71-2.8.93l-.32.04c-.11.01-.24.02-.38.02-.13.01-.26.02-.4.02h-.32c-.58,0-1.18-.1-1.8-.31-.62-.21-1.22-.48-1.8-.83-.58-.36-1.13-.78-1.65-1.26-.51-.48-.96-1-1.33-1.55-.38-.57-.69-1.15-.91-1.76-.23-.61-.34-1.21-.34-1.82,0-1.21.14-2.29.4-3.23.27-.94.7-1.75,1.3-2.44.59-.69,1.36-1.26,2.29-1.72.93-.47,2.06-.84,3.39-1.11.2-.04.4-.07.61-.08.23-.03.44-.04.64-.04,1.33,0,2.49.26,3.48.79.99.52,1.81,1.2,2.46,2.03.65.82,1.13,1.76,1.44,2.79.32,1.02.49,2.03.49,3.04h0ZM95.13,17.75c0-.48-.07-.96-.21-1.45-.13-.48-.32-.91-.59-1.28-.27-.39-.61-.7-1.02-.93-.4-.25-.86-.37-1.4-.37-.41,0-.81.06-1.19.19v6.8c.57.08,1.15.12,1.76.12.24,0,.52-.01.83-.04.31-.03.57-.12.76-.27.2-.15.36-.33.49-.54.14-.22.25-.46.34-.7.09-.25.14-.5.17-.77.04-.26.06-.52.06-.77h0ZM102.49,28.14c-.33.15-.67.27-1.02.35-.35.08-.71.12-1.08.12-.59,0-1.13-.11-1.61-.33-.46-.21-.9-.48-1.31-.83-.4-.36-.77-.76-1.13-1.2-.34-.44-.67-.89-.99-1.34-.33-.44-.65-.87-.97-1.28-.31-.43-.64-.78-.98-1.07-.25-.22-.57-.36-.95-.41-.37-.06-.7-.08-1-.08h-.38c-.13,0-.24,0-.36.02v3.85l.02.35.11.54.13.5c.04.15.09.24.13.27.07.03.16.05.27.06l.3.04c.15.01.31.04.46.06.17.03.32.1.45.21.08.07.1.14.06.21-.04.07-.12.1-.23.1h-2.59c-.86,0-1.72-.02-2.59-.06-.14-.01-.22-.07-.23-.16,0-.11.07-.18.21-.21.31-.06.55-.12.72-.19.17-.07.29-.17.36-.29.08-.12.13-.29.15-.5.01-.22.02-.5.02-.83v-11.46c0-.23-.03-.42-.09-.56-.06-.14-.13-.23-.21-.29-.09-.07-.18-.11-.28-.12-.1-.03-.2-.05-.3-.06-.2-.01-.37-.04-.51-.08-.14-.04-.23-.13-.28-.27-.04-.07-.04-.12,0-.17.04-.06.11-.08.21-.08h1.78c.24.01.47.02.68.02.21-.01.43-.02.66-.02h.36c.13-.02.25-.02.38-.02h1.12c.6,0,1.17.04,1.74.13.58.07,1.11.22,1.59.45.49.22.92.54,1.27.97.35.41.61.96.79,1.65.03.07.04.16.04.27.01.11.02.21.02.31,0,.43-.07.86-.21,1.28-.14.41-.32.82-.55,1.22s-.49.78-.78,1.14c-.28.35-.58.66-.89.95.23.24.46.52.7.85l.76.99,1.31,1.72c.46.58.94,1.1,1.44,1.57.51.45,1.02.82,1.55,1.1.52.26,1.05.35,1.59.27l.13.35h0ZM86.72,25.49c-.08.32-.16.64-.21.97l-.13.97-.06.5c-.03.1-.1.15-.21.15l-.38.1h-2.69c-.32,0-.65,0-.97.02h-.97c-.6,0-1.18,0-1.76-.02-.45,0-.88-.03-1.29-.07-.75.07-1.48.08-2.2.09-.71.02-1.42,0-2.14-.04-.09,0-.16-.02-.21-.06-.04-.06-.05-.12-.02-.19.06-.18.09-.35.09-.52.01-.18.02-.36.02-.54,0-.99-.05-2.03-.15-3.12-.1-1.11-.21-2.15-.34-3.15l-.1-.81-.09-.68-.08-.7-.09-.81c-.63,1.2-1.25,2.41-1.84,3.62l-1.78,3.66-.76,1.59-.79,1.59c-.04.07-.11.1-.19.1s-.16-.03-.23-.08c-.88-1.16-1.63-2.36-2.27-3.6-.62-1.24-1.23-2.5-1.82-3.79l-.4-.83c-.1-.25-.2-.48-.29-.7l-.32-.68c-.11-.23-.25-.5-.42-.81-.03.39-.07.77-.13,1.16-.04.39-.09.76-.15,1.14-.14.95-.27,1.93-.38,2.92-.11.98-.17,1.94-.17,2.89v1.14c.01.13.03.22.06.29.04.07.1.12.17.16.07.04.18.09.32.15l.34.15c.14.06.3.12.49.21.11.04.16.11.13.21-.01.08-.09.12-.23.12-.72,0-1.45,0-2.19.02-.56,0-1.12,0-1.68-.02-.24,0-.48,0-.72,0h-1.25c-.31,0-.69,0-1.12.02-.44.01-.81,0-1.1-.02-.11-.01-.19-.05-.23-.1-.04-.06-.02-.12.06-.19l.74-.37c-.34-.87-.69-1.74-1.04-2.6-.34-.87-.67-1.74-.99-2.6h-4.18c-.11.25-.26.61-.44,1.1-.17.47-.34.96-.51,1.47-.17.5-.32.97-.45,1.43-.11.44-.17.75-.17.93,0,.24.1.39.32.48.23.07.44.12.66.15.14.03.2.1.19.21,0,.1-.07.14-.21.14l-4.41-.02c-.13-.18-.12-.23-.06-.29l.26-.04c.18,0,.36-.05.53-.15.18-.11.35-.24.51-.39.17-.16.31-.34.42-.52.13-.19.23-.37.3-.54.37-.91.71-1.84,1.04-2.79.34-.97.68-1.9,1.02-2.81.49-1.34,1-2.67,1.5-3.99l1.55-3.99c.03-.06.08-.1.15-.14.07-.04.13-.03.19.04.24.26.46.64.66,1.14.2.5.38.96.53,1.39.06.08.09.16.11.25.03.08.06.15.09.21.17.44.35.89.55,1.34.21.45.41.92.59,1.41l.78,2.07.87,2.17c.3.73.6,1.45.89,2.15.31.69.62,1.34.91,1.96.2.4.47.68.83.85.23.1.46.18.71.23l.3-.06c.13-.04.23-.15.32-.33.04-.1.1-.36.17-.79.09-.44.17-.99.26-1.65l.27-2.21c.1-.83.19-1.67.27-2.52.1-.86.19-1.7.28-2.52.1-.84.18-1.61.25-2.32.07-.62.13-1.16.17-1.61l.13-1.01c.01-.08.06-.14.15-.16.08-.03.17,0,.26.06.14.12.32.37.55.74.22.36.48.79.76,1.3.28.51.59,1.08.91,1.72l.99,1.97,1.02,2.03.95,1.92c.35.72.63,1.29.83,1.72.2.41.38.76.53,1.03.37-.73.72-1.45,1.06-2.15.34-.7.68-1.42,1.02-2.15.28-.62.57-1.23.87-1.84.3-.61.59-1.23.89-1.86l.42-.91.87-1.76c.3-.59.64-1.17,1.02-1.74.07-.07.16-.1.26-.08.11.01.18.07.19.16.11.91.22,1.83.32,2.75.11.91.22,1.82.32,2.73l.04.62.09.83.11,1.32c.04.47.09.95.15,1.45l.17,1.45c.06.47.12.91.19,1.32.07.4.14.75.21,1.06.09.3.17.52.26.66.17.28.35.46.55.54.21.07.43.12.65.17.13.03.26.06.4.1.35,0,.56-.05.71-.14.17-.1.3-.23.38-.39.09-.17.14-.35.17-.56.03-.22.04-.45.04-.68v-11.52c0-.18-.02-.32-.06-.43-.04-.11-.1-.2-.19-.25-.07-.07-.16-.12-.25-.15l-.27-.08c-.16-.03-.3-.07-.44-.12-.14-.06-.29-.13-.43-.23-.11-.06-.15-.12-.1-.21.04-.08.12-.12.23-.12h8.14c.08,0,.21-.05.38-.15.1-.03.18-.02.26.02.09.03.12.08.11.14-.04.39-.11.77-.19,1.16-.07.39-.15.76-.23,1.12l-.04.15-.04.16c-.03.11-.11.16-.26.16s-.22-.05-.23-.16c-.06-.64-.27-1.05-.66-1.24-.37-.21-.84-.31-1.42-.31h-.36c-.13,0-.25,0-.38.02-.14.01-.29.02-.44.02h-.44c-.11,0-.19,0-.23.02-.03.01-.1,0-.21-.02v5.52h3.12c.07,0,.18-.02.32-.06.14-.05.28-.11.43-.19.15-.07.29-.12.4-.16.13-.05.23-.09.3-.1.09-.01.17,0,.23.04.07.04.1.1.09.16l-.09.64-.08.62c-.09.51-.15,1.04-.19,1.57,0,.08-.05.14-.15.17-.1.03-.19,0-.27-.06-.09-.08-.16-.18-.21-.29l-.11-.29-.13-.37c-.03-.12-.08-.21-.15-.27-.09-.08-.26-.14-.53-.19-.27-.06-.57-.09-.89-.11-.31-.03-.62-.04-.93-.04h-1.12v5.58c.25.43.63.74,1.12.93.51.18,1,.27,1.46.27.61,0,1.13-.16,1.57-.48.45-.32.76-.79.91-1.41.17-.12.22-.12.27-.1.06,0,.11.02.15.06l.06.12h0ZM52.09,21.23l-1.74-4.98-.83,2.5c-.25.78-.54,1.61-.85,2.48h3.41ZM44.08,25.14c0,.41-.06.86-.19,1.34-.11.48-.27.91-.49,1.28-.04.07-.1.1-.19.1-.89.14-1.79.25-2.69.33-.89.1-1.8.15-2.71.15-1.16,0-2.23-.18-3.22-.54-.97-.37-1.82-.89-2.52-1.55-.71-.68-1.27-1.48-1.67-2.4-.4-.94-.59-1.97-.59-3.1,0-1.21.23-2.38.7-3.5.48-1.13,1.16-2.13,2.03-3,.32-.33.73-.61,1.23-.83.49-.22,1.02-.4,1.57-.54.55-.14,1.1-.24,1.65-.29.57-.05,1.08-.08,1.53-.08.52,0,1.04.04,1.55.1.51.06,1.01.12,1.5.19l1.1.16c.37.04.73.08,1.08.1.14,0,.21.06.21.19-.01.63-.05,1.27-.13,1.9-.07.62-.16,1.24-.28,1.86-.03.11-.11.16-.25.16-.13,0-.21-.05-.24-.16-.1-.59-.29-1.11-.57-1.55-.28-.46-.63-.83-1.04-1.14-.41-.3-.88-.53-1.4-.68-.52-.15-1.08-.23-1.68-.23-.97,0-1.86.15-2.65.45-.78.3-1.45.73-2.02,1.28-.55.54-.98,1.2-1.29,1.98-.3.77-.44,1.63-.44,2.59s.18,1.95.53,2.87c.37.92.88,1.74,1.53,2.46.65.72,1.41,1.29,2.29,1.72.89.43,1.87.64,2.93.64.61,0,1.12-.06,1.55-.19.44-.12.82-.31,1.14-.56.32-.26.61-.58.85-.97.25-.38.51-.83.76-1.34l.47.04c.04.23.06.47.06.72h0ZM29.62,25.49c-.09.32-.16.64-.21.97l-.13.97-.06.5c-.03.1-.1.15-.21.15l-.38.1h-2.69c-.32,0-.65,0-.97.02h-.97c-.6,0-1.18,0-1.76-.02-.58-.01-1.12-.05-1.63-.1-.14,0-.21-.06-.21-.17.01-.12.09-.19.23-.19.27-.01.48-.07.64-.17.17-.1.3-.23.38-.39.09-.17.14-.35.17-.56.03-.22.04-.45.04-.68v-11.52c0-.18-.02-.32-.06-.43-.04-.11-.1-.2-.19-.25-.07-.07-.16-.12-.25-.15l-.27-.08c-.16-.03-.3-.07-.45-.12-.14-.06-.28-.13-.42-.23-.11-.06-.15-.12-.1-.21.04-.08.12-.12.23-.12h8.14c.09,0,.21-.05.38-.15.1-.03.18-.02.25.02.09.03.12.08.11.14-.04.39-.11.77-.19,1.16-.07.39-.15.76-.23,1.12l-.04.15-.04.16c-.03.11-.11.16-.26.16s-.22-.05-.23-.16c-.06-.64-.28-1.05-.66-1.24-.37-.21-.84-.31-1.42-.31h-.36c-.13,0-.25,0-.38.02-.14.01-.29.02-.44.02h-.44c-.11,0-.19,0-.23.02-.03.01-.1,0-.21-.02v5.52h3.12c.07,0,.18-.02.32-.06.14-.05.28-.11.42-.19.16-.07.29-.12.4-.16.13-.05.23-.09.3-.1.08-.01.16,0,.23.04.07.04.1.1.09.16l-.09.64-.09.62c-.08.51-.15,1.04-.19,1.57,0,.08-.05.14-.15.17-.1.03-.19,0-.28-.06-.09-.08-.15-.18-.21-.29l-.1-.29-.13-.37c-.03-.12-.08-.21-.15-.27-.09-.08-.26-.14-.53-.19-.27-.06-.57-.09-.89-.11-.31-.03-.62-.04-.93-.04h-1.12v5.58c.25.43.63.74,1.12.93.51.18,1,.27,1.46.27.61,0,1.13-.16,1.57-.48.45-.32.75-.79.91-1.41.16-.12.22-.12.27-.1.06,0,.11.02.15.06l.07.12h0ZM19.64,19.81c0,1.91-.27,3.57-.82,4.96-.52,1.4-1.28,2.55-2.26,3.47-.98.92-2.16,1.6-3.54,2.06-1.36.44-2.88.66-4.56.66-.61,0-1.22-.02-1.84-.06-.61-.04-1.22-.09-1.81-.14-.7-.06-1.41-.11-2.13-.14-.7-.06-1.4-.07-2.1-.03-.17,0-.28-.07-.32-.23-.01-.15.06-.25.24-.29.35-.08.63-.18.84-.32.21-.14.37-.3.47-.49.12-.21.2-.46.24-.75.03-.31.05-.67.05-1.09v-15.86c0-.29-.05-.52-.13-.69-.07-.17-.17-.3-.29-.4-.12-.1-.25-.16-.39-.2-.14-.04-.27-.07-.39-.09-.21-.04-.4-.08-.55-.12-.16-.06-.26-.16-.32-.31-.05-.1-.05-.18,0-.26.07-.08.16-.11.26-.11.31,0,.63,0,.95.03l.92.06c.38.04.75.07,1.1.09.37.02.74.03,1.13.03.48,0,.94,0,1.39-.03l1.42-.12c.46-.04.93-.06,1.42-.06.49-.02.95-.03,1.39-.03.62,0,1.26.11,1.94.32.7.21,1.39.51,2.07.89.7.36,1.37.8,2.02,1.32.65.5,1.22,1.05,1.7,1.66.51.61.93,1.26,1.26,1.95.33.69.52,1.39.58,2.09.04.36.06.74.06,1.15v1.06h0ZM16.91,20.87c0-1.55-.23-2.95-.71-4.19-.45-1.24-1.1-2.29-1.94-3.15-.82-.88-1.82-1.56-2.99-2.04-1.16-.48-2.43-.72-3.81-.72-.45,0-.9.03-1.34.08-.42.06-.84.16-1.26.32v15.78c.01.25.04.5.08.75.04.23.08.45.13.66.07.21.15.35.24.43.4.31.89.52,1.47.63.59.1,1.13.14,1.6.14,1.26,0,2.41-.18,3.46-.54,1.05-.36,1.94-.9,2.68-1.61.75-.73,1.34-1.64,1.76-2.72.42-1.09.63-2.36.63-3.82h0Z"/>
</svg>