<?xml version="1.0" encoding="UTF-8"?>
<svg id="Capa_5" data-name="Capa 5" xmlns="http://www.w3.org/2000/svg" viewBox="0 0 86.48 26.86">
  <defs>
    <style>
      .cls-1 {
        fill: #fff;
        stroke-width: 0px;
      }
    </style>
  </defs>
  <path class="cls-1" d="M14.99,19.4c-.42,1.01-.78,1.89-1.14,2.77-.58,1.41-1.16,2.81-1.72,4.22-.13.32-.31.44-.65.44-3.67,0-7.35,0-11.02,0-.12,0-.25-.03-.45-.05.09-.23.15-.43.23-.62,2.73-6.43,5.47-12.85,8.18-19.29.22-.51.47-.69,1.03-.68,3.48.03,6.95.02,10.43.03.19,0,.39,0,.71,0-1.11,2.66-2.18,5.21-3.25,7.77l.11.1c.18-.12.37-.23.53-.36,2.97-2.37,5.94-4.75,8.9-7.13.34-.28.68-.41,1.13-.4,2.21.02,4.42,0,6.63,0,.19,0,.39,0,.58,0,.02.04.04.08.06.11-.18.16-.36.32-.55.48-2.85,2.38-5.69,4.76-8.55,7.12-.41.33-.41.56-.1.96,1.66,2.15,3.3,4.31,4.95,6.47.11.14.23.27.45.52,2.42-6.08,4.8-12.06,7.23-18.17h-17.03c.07-.27.09-.42.15-.57.32-.88.66-1.76.96-2.65.12-.35.31-.51.68-.46.11.01.22,0,.33,0,14.79,0,29.58,0,44.37,0,.29,0,.57,0,.96,0-.25.87-.45,1.67-.69,2.46-.44,1.45-.08,1.18-1.56,1.19-5.09.01-10.17.01-15.26,0-.55,0-.83.14-1.01.7-1.43,4.21-2.9,8.41-4.36,12.62-.07.2-.11.4-.06.67.17-.15.34-.29.5-.45,3.51-3.51,7.02-7.01,10.51-10.53.33-.33.67-.47,1.14-.47,3.04.02,6.08,0,9.12,0h.73c-.55,2.63-1.09,5.17-1.63,7.71l.15.07c.15-.12.3-.23.44-.35,2.59-2.29,5.19-4.57,7.76-6.88.44-.39.87-.55,1.45-.55,3.13.02,6.26.01,9.4.01.21,0,.43,0,.74,0-.13.64-.23,1.19-.36,1.75-1.36,6.15-2.72,12.29-4.07,18.44-.07.33-.23.46-.55.45-3.31,0-6.63,0-9.94,0-.44,0-.5-.22-.44-.59.32-2,.62-4,.93-6.01.03-.21.04-.42.07-.79-.29.21-.47.33-.64.47-2.47,2.18-4.94,4.36-7.42,6.53-.22.19-.57.33-.86.33-2.93.03-5.86.04-8.8.05-.86,0-.88-.04-.72-.91.36-1.96.71-3.92,1.06-5.87.03-.17.04-.35.09-.69-.27.2-.44.31-.58.45-2.36,2.19-4.72,4.39-7.07,6.59-.3.28-.6.4-1.01.4-8.29,0-16.58-.01-24.87,0-.47,0-.76-.15-1.04-.52-1.53-2.06-3.09-4.11-4.64-6.16-.16-.21-.34-.42-.61-.76Z"/>
</svg>