<?xml version="1.0" encoding="UTF-8"?>
<svg id="Capa_5" data-name="Capa 5" xmlns="http://www.w3.org/2000/svg" viewBox="0 0 146.7 28.53">
  <defs>
    <style>
      .cls-1 {
        fill: #fff;
        stroke-width: 0px;
      }
    </style>
  </defs>
  <g id="ew0psS">
    <g>
      <path class="cls-1" d="M.02,0c1.69.78,3.25,1.5,4.81,2.22,2.32,1.07,4.65,2.13,6.96,3.24.49.23.87.19,1.33-.03,3.73-1.75,7.48-3.47,11.22-5.2.16-.07.33-.12.54-.2.01.25.03.45.03.65,0,7.19,0,14.37.01,21.56,0,.52-.18.75-.63.96-3.71,1.7-7.4,3.41-11.09,5.15-.49.23-.89.26-1.39.02-3.71-1.75-7.43-3.47-11.16-5.17C.18,22.97,0,22.73,0,22.18.02,15.09.02,7.99.02.9c0-.25,0-.49,0-.9ZM5.15,7.95c-.05.17-.08.23-.08.29,0,3.67-.02,7.34,0,11.02,0,.2.23.49.42.58,2.15,1.02,4.3,2.02,6.47,2.99.26.12.67.1.93-.01,2.15-.96,4.28-1.97,6.42-2.94.39-.18.52-.4.51-.82-.02-2.61,0-5.21,0-7.82v-3.29c-.36.16-.65.28-.93.41-1.62.75-3.29,1.42-4.85,2.29-1.14.64-2.07.56-3.19-.03-1.84-.96-3.77-1.77-5.71-2.67Z"/>
      <path class="cls-1" d="M34.73.06c.36.27.65.47.93.68,2.79,2.1,5.58,4.19,8.34,6.32.5.39.8.34,1.27-.02,2.88-2.21,5.77-4.39,8.66-6.58.14-.11.3-.2.53-.36v22.85h-4.93v-13.1c-.3.2-.5.32-.69.46-1.24.92-2.49,1.82-3.7,2.77-.4.32-.67.28-1.05-.02-1.16-.91-2.35-1.78-3.53-2.66-.23-.17-.47-.34-.84-.6v13.13h-4.98V.06Z"/>
      <path class="cls-1" d="M80.58.12c1.54,0,2.94-.03,4.34.03.2,0,.47.37.58.62,1.32,3.13,2.61,6.27,3.91,9.41,1.64,3.97,3.28,7.95,4.92,11.92.12.29.21.58.35.94-1.7,0-3.3.01-4.91-.02-.17,0-.41-.25-.49-.44-.42-.98-.82-1.96-1.19-2.96-.14-.37-.32-.52-.74-.52-2.31.02-4.62.02-6.93,0-.42,0-.6.17-.73.53-.38.99-.77,1.99-1.2,2.96-.09.19-.37.42-.57.42-1.56.03-3.12.02-4.81.02.14-.34.23-.6.35-.86,2.7-6.15,5.41-12.31,8.09-18.47.14-.32.12-.79.01-1.13-.25-.79-.61-1.55-.99-2.45ZM83.93,9.1c-.76,1.9-1.45,3.62-2.16,5.39h4.31c-.71-1.79-1.39-3.49-2.15-5.39Z"/>
      <path class="cls-1" d="M123.6,16.1h-12.58c-.05.05-.11.11-.16.16.35.52.63,1.12,1.07,1.56,1.61,1.63,4.12,1.71,5.99.19.44-.36.74-.34,1.17-.09.99.58,2,1.12,3.07,1.7-1.89,2.07-4.11,3.29-6.86,3.42-5.01.22-9.08-3.49-9.21-8.35-.12-4.08,2.75-8.34,8.09-8.85,4.2-.4,8.33,2.66,9.13,6.96.2,1.05.19,2.14.29,3.29ZM118.28,12.3c-.38-1.58-2.19-2.66-4.06-2.48-1.57.16-3,1.31-3.05,2.48h7.11Z"/>
      <path class="cls-1" d="M142.44,16.14h-12.55c.34,1.06.93,1.79,1.79,2.31,1.64,1,3.69.85,5.2-.41.41-.34.7-.41,1.18-.12.98.6,2.01,1.12,3.03,1.67-2.33,3.03-7.01,4.65-11.43,2.46-3.75-1.86-5.53-6.59-4.04-10.58,1.76-4.71,6.64-6.35,10.36-5.36,4.58,1.22,6.98,5.32,6.47,10.03ZM137.31,12.31c-.65-1.76-2.31-2.66-4.3-2.46-1.22.12-2.82,1.3-2.87,2.46h7.18Z"/>
      <path class="cls-1" d="M73.15,18.56c-1.32,3.09-5.6,5.04-9.38,4.3-4.2-.81-7.07-4.12-7.18-8.29-.11-4.07,2.61-7.57,6.67-8.56,4.02-.99,8.25.77,9.92,4.19-1.21.72-2.43,1.44-3.74,2.22-.92-1.56-2.15-2.61-4.05-2.5-1.25.07-2.34.53-3.17,1.49-1.64,1.9-1.4,4.86.52,6.46,2.09,1.75,4.56,1.23,6.74-1.49,1.22.72,2.45,1.46,3.67,2.18Z"/>
      <path class="cls-1" d="M106.97.92c-.63,1.37-1.24,2.71-1.87,4.07-.41-.13-.76-.27-1.13-.36-1.39-.33-2.38.44-2.4,1.87-.01.61,0,1.22,0,1.96.8,0,1.56.03,2.31-.01.58-.03.74.18.72.74-.04,1.15-.01,2.3-.01,3.52h-2.98v10.28h-4.62v-10.23h-2.05c0-1.38,0-2.69.02-3.99,0-.1.27-.27.43-.28.49-.04.99-.01,1.6-.01,0-.83-.04-1.59,0-2.35.14-2.02.91-3.72,2.65-4.89,1.89-1.27,5.33-1.43,7.33-.31Z"/>
      <path class="cls-1" d="M146.18,5.95c-.2.51-.4,1.01-.6,1.52h-.22c-.21-.52-.43-1.04-.64-1.55-.05,0-.09,0-.14,0v1.47c-.07.01-.13.03-.2.04-.06-.11-.16-.22-.16-.33-.02-.52-.03-1.04,0-1.56,0-.15.17-.29.26-.44.14.12.35.2.41.35.19.43.33.88.56,1.51.22-.61.36-1.06.56-1.49.08-.16.3-.25.46-.37.07.17.2.33.21.5.03.6.01,1.21.01,1.81-.1,0-.21,0-.31,0-.03-.48-.05-.97-.08-1.45-.04,0-.09,0-.13-.01Z"/>
      <path class="cls-1" d="M142.05,5.16h1.77s.02.07.03.11c-.21.06-.43.13-.76.22v1.91h-.26c-.02-.32-.05-.65-.06-.98-.02-.53.2-1.2-.71-1.27Z"/>
    </g>
  </g>
</svg>