<?xml version="1.0" encoding="UTF-8"?>
<svg id="Capa_5" data-name="Capa 5" xmlns="http://www.w3.org/2000/svg" viewBox="0 0 105.95 22.69">
  <defs>
    <style>
      .cls-1 {
        fill: #fff;
        stroke-width: 0px;
      }
    </style>
  </defs>
  <path class="cls-1" d="M105.95,12.6c-.13,0-.08.1-.08.16-.22,1.81-.84,3.48-1.87,4.99-1.06,1.55-2.42,2.76-4.09,3.63-1.86.97-3.84,1.39-5.93,1.3-4.56-.19-8.53-3.07-10.14-7.33-.67-1.78-.85-3.62-.62-5.5.32-2.6,1.48-4.77,3.34-6.59,1.29-1.27,2.78-2.21,4.51-2.75,1.43-.44,2.9-.58,4.4-.47,1.47.11,2.88.47,4.2,1.15,1.48.76,2.72,1.81,3.77,3.1,1.26,1.54,2.06,3.29,2.37,5.26.03.17.04.34.06.5,0,.05-.04.14.08.13v2.42ZM94.47,3.48c-.31,0-.69.01-1.06.06-2.03.29-3.68,1.26-4.95,2.86-1.47,1.85-1.96,3.95-1.59,6.27.62,3.88,4.2,7.1,8.78,6.47,2.96-.41,4.96-2.16,6.14-4.86.47-1.07.58-2.22.53-3.37-.03-.68-.14-1.34-.34-2-.83-2.82-3.84-5.49-7.52-5.42Z"/>
  <path class="cls-1" d="M0,.39c.06,0,.11-.02.17-.02,1.86,0,3.72-.04,5.57.03,1.93.07,3.82.37,5.61,1.14,2.25.97,3.91,2.57,5.01,4.75.94,1.89,1.21,3.91,1.07,5.99-.11,1.76-.6,3.41-1.55,4.91-1.44,2.28-3.45,3.78-6.05,4.51-1.69.47-3.41.63-5.15.64-1.56.01-3.12,0-4.68,0V.39ZM3.77,11.35c0,1.81,0,3.63,0,5.44,0,.63,0,1.26,0,1.89,0,.14.03.2.19.19.23-.01.47,0,.7,0,1.37.01,2.72-.1,4.04-.47,2.09-.58,3.55-1.88,4.47-3.82.6-1.26.75-2.61.64-3.99-.09-1.13-.38-2.21-.97-3.19-1.07-1.79-2.67-2.82-4.69-3.25-1.36-.29-2.74-.32-4.13-.33-.21,0-.25.06-.25.26,0,2.42,0,4.84,0,7.27Z"/>
  <path class="cls-1" d="M62.32,10.61c1.57,0,3.15,0,4.72,0,.15,0,.22.03.24.2.14,1.86,0,3.68-.64,5.45-.59,1.6-1.59,2.9-2.9,3.97-1.52,1.23-3.26,2-5.18,2.31-2.33.39-4.58.05-6.68-1.03-3.28-1.68-5.34-4.34-6.09-7.95-.95-4.56,1.08-9.24,5.01-11.75,1.6-1.02,3.35-1.61,5.24-1.76,2.08-.17,4.08.14,5.97,1.07,1.3.64,2.41,1.51,3.38,2.58.27.29.52.6.76.91.07.09.07.14-.02.22-.84.71-1.68,1.43-2.51,2.15-.13.11-.17.04-.24-.05-.53-.69-1.11-1.33-1.8-1.87-1.34-1.05-2.85-1.54-4.55-1.58-4.11-.1-7.14,3.2-7.68,6.4-.47,2.77.25,5.18,2.31,7.13,1.04.99,2.23,1.74,3.65,2.05,2.89.63,5.76-.52,7.4-2.89.39-.56.61-1.19.73-1.86.04-.19-.03-.22-.2-.22-1.86,0-3.71,0-5.57,0q-.28,0-.28-.27c0-1,0-1.99,0-2.99,0-.18.05-.23.22-.22,1.57,0,3.15,0,4.72,0Z"/>
  <path class="cls-1" d="M44.24,22.35c-.59,0-1.19,0-1.78,0-.14,0-.21-.03-.27-.17-.64-1.53-1.28-3.06-1.92-4.59-.05-.13-.1-.26-.15-.39-.13.05-.26.1-.39.15-2.66.91-5.31.85-7.93-.15-.16-.06-.18-.02-.24.12-.27.68-.56,1.35-.85,2.03-.4.94-.81,1.88-1.21,2.82-.06.14-.13.18-.28.18-1.16,0-2.32,0-3.47,0q-.3,0-.18-.27c2.23-5.11,4.46-10.21,6.68-15.32.91-2.08,1.82-4.16,2.72-6.25.07-.15.14-.23.32-.22.46.02.92.01,1.38,0,.17,0,.24.06.31.21,2.25,5.3,4.5,10.6,6.75,15.89.8,1.89,1.6,3.78,2.41,5.67q.12.29-.2.29c-.57,0-1.13,0-1.7,0ZM35.91,6.88c-1,2.43-1.98,4.8-2.96,7.18.08.02.15.04.23.06,1.82.55,3.64.52,5.47.04.1-.03.2-.02.13-.19-.66-1.6-1.31-3.21-1.95-4.82-.3-.74-.59-1.48-.91-2.27Z"/>
  <path class="cls-1" d="M69.67,11.36c0-3.57,0-7.15,0-10.72q0-.27.28-.27c3.81,0,7.61,0,11.42,0q.29,0,.29.29c0,.97,0,1.95,0,2.92,0,.21-.06.25-.26.25-2.62,0-5.24,0-7.86,0-.22,0-.27.06-.27.27,0,1.44,0,2.88,0,4.32,0,.19.05.23.24.23,2.39,0,4.79,0,7.18,0q.28,0,.28.29c0,.97,0,1.93,0,2.9,0,.2-.05.26-.26.26-2.39,0-4.79,0-7.18,0-.22,0-.27.06-.27.27,0,2.08,0,4.17,0,6.25q0,.27.28.27c2.62,0,5.24,0,7.86,0,.2,0,.26.04.26.25-.01,1,0,2.01,0,3.01,0,.18-.05.22-.22.22-3.85,0-7.7,0-11.55,0-.21,0-.23-.08-.23-.25,0-3.58,0-7.16,0-10.74Z"/>
  <path class="cls-1" d="M24.03,11.36c0,3.57,0,7.15,0,10.72,0,.21-.05.27-.26.27-1.04-.01-2.09,0-3.14,0-.16,0-.21-.04-.21-.21,0-7.18,0-14.36,0-21.55,0-.2.07-.23.24-.23,1.05,0,2.09,0,3.14,0,.18,0,.24.05.24.24,0,3.59,0,7.17,0,10.76Z"/>
</svg>