<?xml version="1.0" encoding="UTF-8"?>
<svg id="Capa_5" data-name="Capa 5" xmlns="http://www.w3.org/2000/svg" viewBox="0 0 117.3 29.77">
  <defs>
    <style>
      .cls-1 {
        fill: #fff;
        stroke-width: 0px;
      }
    </style>
  </defs>
  <g id="AIsLpJ">
    <g>
      <path class="cls-1" d="M73.82,10.34c1.16-3.17,2.32-6.28,3.42-9.41.23-.66.51-.92,1.23-.87,1.08.07,2.17.04,3.26.01.42,0,.58.07.58.54-.02,6.68-.02,13.37,0,20.05,0,.42-.11.53-.53.52-1.29-.03-2.58-.04-3.87,0-.51.02-.64-.12-.63-.64.03-3.37.01-6.75.01-10.1-.31.85-.65,1.75-.98,2.66-.9,2.48-1.8,4.97-2.7,7.45-.1.27-.08.63-.55.63-.47,0-.47-.33-.57-.61-1.13-3.05-2.25-6.1-3.37-9.15-.06-.16-.13-.33-.19-.49-.06,0-.13,0-.19,0,0,1.02,0,2.03,0,3.05-.02,2.2-.05,4.4-.05,6.59,0,.48-.14.62-.61.59-.61-.04-1.22-.04-1.83,0-.44.03-.57-.1-.57-.56.02-2.38.01-4.76.01-7.14,0-4.26,0-8.52-.01-12.78,0-.48.08-.7.62-.65.83.08,1.83-.3,2.45.14.59.41.79,1.38,1.14,2.11,1.23,2.54,2.46,5.08,3.69,7.62.06.12.13.23.23.4Z"/>
      <path class="cls-1" d="M117.3,11.34c-.1,2.85-1.11,5.86-3.76,8.08-3.46,2.89-7.85,2.48-10.79-.95-2.15-2.5-2.92-5.47-2.7-8.71.16-2.44.91-4.69,2.5-6.61,3.42-4.1,9.18-3.96,12.39.3,1.65,2.18,2.34,4.66,2.36,7.88ZM111.49,10.98c-.04-1.9-.13-3.64-.52-5.35-.28-1.21-.57-2.43-1.44-3.39-.61-.68-1.16-.67-1.79-.02-.68.71-.98,1.62-1.22,2.54-.94,3.68-.92,7.39-.19,11.1.21,1.09.52,2.16,1.18,3.07.64.87,1.55.86,2.2,0,.27-.36.46-.77.63-1.19.9-2.22,1.08-4.56,1.15-6.76Z"/>
      <path class="cls-1" d="M84.07,10.65c0-3.24.03-6.48-.02-9.72-.01-.74.22-.87.9-.86,2.47.04,4.94.02,7.41.02,2.9,0,4.57,1.15,5.65,3.85,1.48,3.7.06,6.96-2.16,8.69-.83.64-1.74,1-2.82.96-1.15-.04-2.31.02-3.47-.02-.54-.02-.63.16-.62.65.03,2.13,0,4.26.02,6.39,0,.47-.12.62-.6.6-1.22-.03-2.45-.04-3.67,0-.5.02-.64-.11-.64-.63.03-3.31.01-6.62.01-9.93ZM88.95,6.75c0,1.04.02,2.08-.01,3.12-.02.46.15.57.58.56.79-.03,1.58-.02,2.37,0,.62.01,1.11-.24,1.46-.72.81-1.09,1.2-2.32,1.04-3.69-.22-1.82-1.5-2.94-3.32-2.94-.54,0-1.09.02-1.63,0-.38-.02-.51.09-.5.49.03,1.06,0,2.13,0,3.19Z"/>
      <path class="cls-1" d="M.01,10.58c0-3.29.01-6.57-.01-9.86C0,.24.09.07.62.07c3.38.03,6.75.03,10.13,0,.53,0,.66.16.63.65-.04.52-.03,1.04,0,1.56.02.42-.13.54-.54.53-1.84-.02-3.67.02-5.51-.03-.63-.02-.76.19-.72.76.05.72.05,1.45,0,2.17-.04.54.17.64.66.63,1.22-.03,2.45.01,3.67-.02.47-.01.59.15.56.58-.05.61.25,1.39-.11,1.77-.36.39-1.16.11-1.76.12-.86.02-1.72.02-2.58,0-.33,0-.42.1-.42.42.01,2.99.01,5.98,0,8.97,0,.42.22.4.51.4,1.84,0,3.67.01,5.51-.01.45,0,.66.08.62.58-.04.47-.03.95,0,1.43.02.37-.12.45-.47.45-3.42-.01-6.85-.02-10.27,0-.46,0-.5-.18-.5-.56.01-3.31,0-6.62,0-9.93Z"/>
      <path class="cls-1" d="M52.01,10.57c0-3.29.01-6.57-.01-9.86,0-.51.14-.64.65-.64,3.4.02,6.8.02,10.2,0,.44,0,.6.11.57.56-.04.56-.03,1.13,0,1.7.02.4-.14.49-.51.49-1.93-.02-3.85.01-5.78-.02-.51,0-.67.12-.64.64.04.88.03,1.77,0,2.65-.01.43.14.54.55.53,1.36-.02,2.72,0,4.08-.02.42,0,.53.11.53.53.01,1.68.03,1.68-1.67,1.68-.97,0-1.95.03-2.92-.01-.46-.02-.56.14-.56.58.02,2.9.02,5.8,0,8.7,0,.42.11.54.53.54,1.93-.02,3.85.01,5.78-.02.53,0,.66.15.62.64-.05.63.2,1.48-.12,1.83-.38.41-1.24.12-1.89.12-2.92-.03-5.84-.09-8.76-.11-.52,0-.64-.15-.63-.65.02-3.28.01-6.57.01-9.86Z"/>
      <path class="cls-1" d="M34.73,11.95c0-2.83-.01-5.67.01-8.5,0-.49-.09-.67-.62-.65-1.11.05-2.22-.02-3.33.03-.53.02-.67-.16-.63-.65.04-.52.04-1.04,0-1.56-.03-.42.11-.54.53-.53,2.09.02,4.17,0,6.26,0,2.18,0,4.35.01,6.53,0,.45,0,.65.08.62.58-.05.63-.04,1.27,0,1.9.02.41-.1.55-.53.54-1.06-.03-2.13.02-3.2-.02-.52-.02-.64.14-.63.64.02,5.53,0,11.06.03,16.59,0,.63-.17.79-.78.76-1.2-.05-2.4-.05-3.6,0-.56.02-.66-.18-.66-.69.02-2.81.01-5.62.01-8.43Z"/>
      <path class="cls-1" d="M13.25,10.6c0-3.28.01-6.57-.01-9.85,0-.54.15-.69.68-.67,1.11.04,2.22.04,3.33,0,.58-.02.76.1.75.73-.03,5.07-.02,10.15-.02,15.22,0,.7.02,1.41,0,2.11-.02.4.13.49.5.49,1.77-.02,3.53.01,5.3-.02.49,0,.63.14.58.61-.07.6.25,1.4-.13,1.75-.33.3-1.12.1-1.7.1-2.85,0-5.71-.02-8.56.02-.63,0-.73-.18-.73-.76.03-3.24.01-6.48.01-9.72Z"/>
      <path class="cls-1" d="M45.7,10.53c0-3.29,0-6.57-.01-9.86,0-.47.12-.62.6-.6,1.11.04,2.22.02,3.33,0,.39,0,.56.08.56.52-.01,6.66-.01,13.32,0,19.99,0,.4-.14.49-.51.49-1.13-.02-2.27-.04-3.4,0-.51.02-.58-.17-.58-.62.02-3.31,0-6.62,0-9.93Z"/>
      <path class="cls-1" d="M80.9,29.57c-.1.04-.12.05-.14.06q-1.16.07-1.62-.98c-.21-.47-.42-.94-.63-1.42.94-.16,1.27-.65.96-1.36-.17-.4-.48-.51-.88-.46-.47.06-.23.43-.24.64-.03,1.04-.04,2.08,0,3.12.02.52-.28.46-.6.45-.3,0-.63.1-.62-.44.03-1.31.02-2.62,0-3.94,0-.29.09-.4.38-.39.63.02,1.27-.02,1.9.02.68.04,1.24.35,1.45,1.03.21.68-.11,1.19-.69,1.54-.25.15-.28.28-.13.53.29.51.55,1.03.84,1.59Z"/>
      <path class="cls-1" d="M52.56,29.65q-1.34,0-1.34-1.34c0-1,.01-1.99,0-2.99,0-.35.1-.48.46-.46.5.03,1,0,1.49.02,1.42.07,2.25,1.02,2.23,2.52-.02,1.45-.82,2.24-2.29,2.25-.18,0-.36,0-.54,0ZM52.44,27.18c0,.36,0,.73,0,1.09,0,.7.32.89.96.53.72-.4.8-1.1.76-1.83-.03-.65-.28-1.19-.91-1.47-.1-.05-.21-.07-.32-.09-.31-.05-.52,0-.5.41.03.45,0,.91,0,1.36Z"/>
      <path class="cls-1" d="M69.62,27.06c.02-.11.02-.39.09-.65.32-1.12,1.28-1.83,2.24-1.66,1.08.19,1.89,1.28,1.85,2.52-.04,1.3-.84,2.36-1.89,2.48-1.24.15-2.29-1.01-2.29-2.69ZM72.32,27.19c-.08-.56-.05-1.13-.3-1.66-.08-.16-.19-.36-.38-.32-.12.02-.27.18-.32.31-.5,1.18-.47,2.36.02,3.53.06.14.14.3.34.28.19-.01.25-.17.32-.31.3-.58.24-1.23.33-1.84Z"/>
      <path class="cls-1" d="M37.59,29.65c-.31,0-.56-.03-.8,0-.45.07-.63-.14-.74-.55-.22-.82-.65-1.04-1.52-.84-.21.05-.23.17-.27.32-.08.28-.16.56-.25.84-.1.31-.36.25-.57.2-.24-.06-.09-.26-.05-.39.41-1.34.85-2.66,1.23-4.01.1-.37.31-.41.59-.36.29.05.68-.21.85.29.48,1.47.99,2.94,1.52,4.48ZM35.01,26.03c-.13.49-.23.81-.29,1.13-.03.14-.14.35.06.41.21.05.47.06.65-.03.15-.07-.02-.28-.06-.41-.09-.32-.21-.64-.36-1.1Z"/>
      <path class="cls-1" d="M20.44,29.57c.45-1.46.91-2.92,1.35-4.38.12-.42.43-.33.7-.32.29,0,.63-.13.78.32.44,1.35.89,2.7,1.36,4.04.12.33.04.4-.31.43-.66.07-1.1-.09-1.16-.82-.05-.62-.46-.6-.91-.58-.44.01-.83-.06-.93.57-.06.39-.07,1.06-.88.74ZM22.14,26.01c-.19.61-.33,1.07-.48,1.53q1.07.12.75-.81c-.06-.19-.14-.37-.28-.72Z"/>
      <path class="cls-1" d="M92.7,29.57c-1.25.21-1.29.22-1.68-.86-.17-.46-.45-.46-.83-.45-.38.01-.78-.09-.89.46-.05.24-.18.46-.27.69-.09.25-.3.28-.49.21-.23-.09-.06-.26-.02-.4.42-1.33.85-2.66,1.25-3.99.09-.3.24-.44.52-.37.3.07.69-.23.88.22.04.1.08.21.11.32.47,1.38.94,2.77,1.41,4.16ZM90.62,27.56c-.08-.52-.25-.98-.5-1.49-.18.53-.33.99-.5,1.49h.99Z"/>
      <path class="cls-1" d="M29.11,24.73c.52-.02.91.22,1.22.61.17.21.17.38-.07.56-.24.17-.33.05-.46-.13-.09-.12-.22-.24-.36-.3-.27-.12-.55-.1-.72.17-.16.26-.11.54.15.72.3.2.62.37.93.55.62.35.77.91.67,1.56-.11.64-.49,1.08-1.11,1.24-.63.16-1.22.02-1.66-.5-.12-.14-.42-.32-.07-.53.22-.13.47-.33.67.05.04.08.11.14.18.2.28.25.56.18.78-.06.24-.26.2-.55-.09-.76-.31-.22-.66-.38-.98-.6-.59-.41-.78-1.08-.55-1.8.21-.64.73-.99,1.46-.98Z"/>
      <path class="cls-1" d="M16.64,26.19c-.09-.11-.19-.24-.28-.36-.22-.3-.47-.58-.88-.53-.46.06-.69.4-.82.81-.24.71-.23,1.42,0,2.13.13.41.36.75.81.81.44.06.78-.15,1.05-.5.14-.18.2-.57.58-.29.41.3.02.53-.12.71-.43.6-1.05.85-1.78.74-.93-.14-1.47-.72-1.75-1.59-.63-1.91.63-3.65,2.47-3.41.35.05.65.19.89.44.37.39.5.76-.16,1.02Z"/>
      <path class="cls-1" d="M95.66,27.24c0-.65.03-1.31,0-1.96-.03-.55.35-.41.63-.41.29,0,.64-.13.63.42-.03,1.04.02,2.08-.02,3.11-.02.46.15.6.58.55.22-.03.45,0,.68,0,.25-.02.37.06.36.34,0,.24-.05.38-.34.37-.72-.01-1.45-.01-2.17,0-.34,0-.35-.2-.34-.44,0-.65,0-1.31,0-1.96Z"/>
      <path class="cls-1" d="M45.28,27.26c0-.2-.01-.41,0-.61.04-.58-.26-1.47.11-1.67.55-.29,1.36-.1,2.05-.12.25,0,.29.14.29.34,0,.21-.05.35-.3.34-.29,0-.59.01-.88,0-.3-.02-.32.14-.32.38,0,.22.07.34.31.32.18-.01.36,0,.54,0,.27.02.23.22.24.4,0,.22-.13.3-.3.24-.9-.3-.82.3-.79.85,0,.11,0,.23,0,.34,0,.97,0,.96.99,1,.19,0,.49-.13.5.26.01.43-.32.31-.53.3-.62-.03-1.43.28-1.82-.13-.3-.32-.09-1.12-.1-1.7,0-.18,0-.36,0-.54Z"/>
      <path class="cls-1" d="M64.35,27.55c0-.5-.03-1,0-1.49.03-.42-.1-.56-.53-.53-.19.01-.55.19-.57-.24-.02-.5.38-.28.59-.28.84-.03,1.67-.01,2.51,0,.19,0,.42-.06.42.28,0,.34-.26.29-.43.26-.76-.15-.83.25-.8.86.04.92-.02,1.85.02,2.78.03.58-.33.46-.66.47-.34.02-.62.03-.58-.47.05-.54.01-1.08.01-1.63Z"/>
      <path class="cls-1" d="M60.01,27.24c0,.66-.03,1.31,0,1.97.03.54-.33.43-.62.42-.28,0-.65.16-.64-.4.03-1.31.03-2.62,0-3.93-.01-.54.33-.43.62-.43.28,0,.66-.15.63.41-.03.65,0,1.31,0,1.97Z"/>
      <path class="cls-1" d="M85.29,27.28c0,.65-.03,1.31,0,1.96.03.51-.32.4-.58.38-.26-.02-.67.2-.66-.37.02-1.33.02-2.66,0-4-.01-.51.32-.4.58-.38.26.02.68-.21.66.37-.02.68,0,1.35,0,2.03Z"/>
    </g>
  </g>
</svg>