<?xml version="1.0" encoding="UTF-8"?>
<svg id="Capa_5" data-name="Capa 5" xmlns="http://www.w3.org/2000/svg" viewBox="0 0 137.72 22">
  <defs>
    <style>
      .cls-1 {
        fill: #fff;
        stroke-width: 0px;
      }
    </style>
  </defs>
  <path class="cls-1" d="M13.62,8.94c-.25-.38-.27-.6.07-.95,2.3-2.34,4.57-4.71,6.85-7.07.11-.11.2-.23.32-.37-.11-.02-.16-.04-.21-.04-2.47,0-4.94-.01-7.41.01-.21,0-.46.17-.61.33-1.76,1.96-3.51,3.93-5.26,5.89-.14.15-.29.3-.54.57V.54H0v20.93h6.83v-.69c0-1.82,0-3.64,0-5.46,0-.18-.02-.4.08-.52.49-.56,1.01-1.09,1.55-1.67.14.22.24.37.34.52,1.5,2.46,3,4.92,4.48,7.4.2.33.41.48.8.47,2.36-.02,4.72,0,7.09-.01.17,0,.33-.02.57-.04-.13-.22-.22-.38-.31-.52-2.6-4-5.19-8.01-7.8-12.01Z"/>
  <path class="cls-1" d="M63.36,6.26c-1.87,0-3.67,0-5.47.02-.12,0-.3.22-.34.37-.45,1.67-.88,3.34-1.31,5.01-.33,1.29-.66,2.59-1,3.88-.04,0-.08,0-.12,0-.76-3.08-1.53-6.17-2.3-9.26h-5.13c-.79,3.11-1.59,6.2-2.38,9.29-.04,0-.08,0-.12,0-.77-3.1-1.54-6.2-2.31-9.29h-5.83c.04.16.07.3.11.43,1.57,4.79,3.16,9.57,4.72,14.36.12.36.3.46.66.46,1.64-.02,3.28-.02,4.92,0,.41,0,.55-.14.64-.52.6-2.56,1.22-5.11,1.84-7.66.05-.2.11-.39.17-.59.04,0,.08,0,.11,0,.06.18.12.36.16.54.68,2.56,1.37,5.11,2.03,7.67.11.44.3.56.73.55,1.55-.03,3.1-.04,4.65,0,.54.02.74-.19.89-.67,1.18-3.78,2.39-7.55,3.59-11.32.34-1.08.69-2.15,1.06-3.29Z"/>
  <path class="cls-1" d="M125.19,12.65c-.25-.36-.26-.58.07-.9,1.62-1.65,3.21-3.32,4.81-4.98.13-.13.25-.28.41-.45-.14-.03-.18-.05-.23-.05-2.15,0-4.29-.01-6.44.01-.21,0-.46.17-.6.34-1,1.16-1.97,2.34-2.96,3.52-.19.23-.39.45-.58.68-.04-.02-.08-.03-.12-.05V.55h-5.99v20.92h6c0-1.29,0-2.53,0-3.77,0-.2.04-.44.15-.6.27-.37.6-.7.97-1.11.86,1.42,1.73,2.64,2.38,3.98.61,1.26,1.41,1.7,2.81,1.59,1.75-.15,3.53-.04,5.42-.04-.21-.31-.34-.52-.48-.73-1.87-2.72-3.73-5.44-5.61-8.14Z"/>
  <path class="cls-1" d="M112.3,17.9c-.06-2.47,0-4.94-.11-7.4-.11-2.42-1.21-3.68-3.55-4.26-2.22-.55-4.47-.51-6.72-.26-1.3.15-2.56.43-3.68,1.13-1.35.85-1.96,2.1-1.95,3.78,1.88,0,3.69,0,5.51-.01.11,0,.23-.2.34-.32.27-.3.48-.71.82-.87.83-.39,1.72-.34,2.58-.02.42.16.68.49.71.94.03.46-.21.8-.61,1-.27.13-.56.26-.86.31-1.08.18-2.17.34-3.26.49-1.36.19-2.71.43-3.94,1.08-1.71.91-2.37,2.38-2.24,4.26.12,1.73.96,3.03,2.57,3.61,2.9,1.05,5.69.86,8.22-1.11.12-.1.25-.19.43-.33.1.55.2,1.03.29,1.51h6.24c-1.15-1.02-.74-2.34-.77-3.55ZM105.87,17.21c-.62,1.26-2.56,1.77-3.74,1-.67-.44-.76-1.44-.14-2.01.23-.21.53-.39.83-.47,1.12-.32,2.25-.59,3.4-.89.1.82.01,1.62-.35,2.36Z"/>
  <path class="cls-1" d="M37.64,17.56c-.06-2.22,0-4.43-.04-6.65-.05-2.76-1.3-4.24-4-4.76-2.38-.46-4.77-.44-7.15-.04-1.22.21-2.39.56-3.36,1.37-1.06.88-1.46,2.03-1.46,3.4h5.76c.32-.92.61-1.26,1.4-1.36.56-.07,1.15-.05,1.71.04.71.12,1.04.5,1.07,1.03.04.57-.24.98-.98,1.17-.94.24-1.91.35-2.86.54-1.39.28-2.81.46-4.16.9-1.96.63-2.97,2.21-2.93,4.2.04,2.06,1.13,3.55,3.13,4.18,1.71.55,3.47.53,5.16,0,1.04-.33,1.98-.96,2.99-1.46.04.2.14.53.16.86.02.41.19.54.61.54,1.77-.02,3.53,0,5.3-.01.15,0,.3-.03.62-.06-1.42-1.11-.95-2.56-.98-3.89ZM28.16,18.47c-.71-.14-1.16-.56-1.22-1.12-.07-.65.26-1.2.92-1.5.31-.14.64-.23.97-.32.9-.23,1.8-.45,2.7-.67.39,2.51-1.11,4.06-3.37,3.6Z"/>
  <path class="cls-1" d="M78.54,18.82c0-2.65.02-5.3-.02-7.95-.05-2.71-1.28-4.18-3.92-4.71-2.36-.48-4.73-.45-7.1-.07-1.29.21-2.53.58-3.55,1.46-1.01.87-1.39,2-1.39,3.32h5.81c.13-.72.52-1.23,1.25-1.32.58-.08,1.19-.09,1.77,0,.74.11,1.09.5,1.12,1.05.04.57-.24.98-.98,1.17-.96.24-1.95.35-2.91.55-1.41.29-2.85.48-4.2.95-1.98.69-2.85,2.19-2.77,4.29.08,2,1.12,3.48,3.09,4.03,2.8.77,5.47.53,7.8-1.42.08-.06.17-.11.3-.2.12.55.24,1.04.35,1.52h6.21c-.01-.09,0-.17-.03-.19-.81-.64-.82-1.54-.81-2.46ZM72.07,17.36c-.67,1.17-2.6,1.59-3.7.82-.69-.49-.71-1.55.03-2.07.35-.25.79-.41,1.22-.53.93-.26,1.87-.47,2.89-.71.07.87.02,1.72-.43,2.5Z"/>
  <path class="cls-1" d="M92.17,12.76c-1.26-.47-2.59-.74-3.89-1.11-.79-.23-1.61-.41-2.36-.74-.65-.28-.69-1.02-.17-1.46.93-.78,2.68-.37,3.1.75.13.33.3.37.59.37,1.5,0,2.99,0,4.49,0,.16,0,.32-.02.47-.03,0-.09.02-.14.02-.2,0-.07-.01-.14-.03-.21-.33-1.87-1.46-3.05-3.2-3.67-1.76-.63-3.59-.73-5.44-.59-1.47.12-2.89.44-4.14,1.26-1.46.96-2.08,2.35-1.97,4.07.1,1.59.96,2.72,2.38,3.33,1,.43,2.08.69,3.13.99.99.28,2,.46,2.98.77.67.21.93.64.87,1.15-.06.57-.44.97-1.08,1.13-1.55.39-2.56-.17-3.09-1.73h-5.65c.02.24.02.43.06.62.37,1.91,1.56,3.11,3.33,3.8,2.02.79,4.13.78,6.24.6,1.3-.12,2.56-.41,3.72-1.04,1.71-.93,2.58-2.38,2.52-4.33-.06-1.92-1.19-3.1-2.89-3.72Z"/>
  <path class="cls-1" d="M131.75,6.28v15.21h5.97V6.28h-5.97Z"/>
  <path class="cls-1" d="M137.71,0h-5.96v4.21h5.96V0Z"/>
</svg>