<?xml version="1.0" encoding="UTF-8"?>
<svg xmlns="http://www.w3.org/2000/svg" xmlns:xlink="http://www.w3.org/1999/xlink" viewBox="0 0 83.91 83.91">
  <defs>
    <style>
      .cls-1 {
        fill: url(#Degradado_sin_nombre_22);
      }

      .cls-1, .cls-2, .cls-3, .cls-4 {
        stroke-width: 0px;
      }

      .cls-5 {
        clip-path: url(#clippath);
      }

      .cls-2 {
        fill: none;
      }

      .cls-3 {
        opacity: .18;
      }

      .cls-3, .cls-4 {
        fill: #f50450;
      }
    </style>
    <clipPath id="clippath">
      <rect class="cls-2" x="-2704.93" y="-1859.34" width="683.27" height="666.93"/>
    </clipPath>
    <radialGradient id="Degradado_sin_nombre_22" data-name="Degradado sin nombre 22" cx="-1269.51" cy="-799.72" fx="-1269.51" fy="-799.72" r="1330.8" gradientUnits="userSpaceOnUse">
      <stop offset=".08" stop-color="#f50450"/>
      <stop offset="1" stop-color="#f50450" stop-opacity="0"/>
    </radialGradient>
  </defs>
  <g id="Capa_2" data-name="Capa 2">
    <g class="cls-5">
      <circle class="cls-1" cx="-1269.51" cy="-799.72" r="1330.8"/>
    </g>
  </g>
  <g id="Capa_5" data-name="Capa 5">
    <g>
      <circle class="cls-3" cx="41.96" cy="41.96" r="41.96"/>
      <g id="xwKVcM.tif">
        <g>
          <path class="cls-4" d="M60.93,25.02c-2.05-1.7-3.26-2.79-4.55-3.77-14.46-10.99-36.41-2.83-39.01,14.6-.31,2.1-2.2,5.76,1.32,6.23,3.1.41,2.18-3.35,2.55-5.4,1.42-7.74,8.02-14.48,15.72-15.88,8.47-1.54,16.48,1.47,20.27,7.8-1.93,0-3.73-.03-5.53,0-1.23.02-2.43.36-2.53,1.79-.12,1.76,1.24,1.99,2.64,2.2,12.1,1.83,14.76-.62,13.61-12.58-.14-1.46-.02-3.29-2.02-3.4-2.05-.1-2.09,1.7-2.21,3.18-.11,1.45-.15,2.9-.27,5.22ZM21.18,55.98c2.07,1.63,3.32,2.68,4.63,3.63,14.81,10.77,35.85,3.2,38.9-14.09.38-2.18,2.1-5.9-.92-6.53-3.57-.75-2.54,3.27-2.94,5.4-1.43,7.61-8.29,14.61-15.77,15.9-8.52,1.48-16.47-1.58-20.18-7.93,1.93,0,3.73.03,5.53,0,1.23-.03,2.42-.37,2.51-1.81.11-1.77-1.26-1.98-2.65-2.19-11.99-1.79-15.29,1.39-13.58,13.1.2,1.33.29,2.83,2.01,2.91,1.74.08,2.05-1.36,2.17-2.72.14-1.61.18-3.23.3-5.67Z"/>
          <path class="cls-4" d="M60.93,25.02c.11-2.32.15-3.77.27-5.22.12-1.48.16-3.29,2.21-3.18,2,.1,1.88,1.94,2.02,3.4,1.15,11.96-1.51,14.41-13.61,12.58-1.4-.21-2.76-.44-2.64-2.2.1-1.43,1.3-1.77,2.53-1.79,1.8-.04,3.6,0,5.53,0-3.79-6.33-11.79-9.34-20.27-7.8-7.71,1.4-14.31,8.13-15.72,15.88-.38,2.05.55,5.82-2.55,5.4-3.52-.47-1.63-4.13-1.32-6.23,2.6-17.43,24.55-25.59,39.01-14.6,1.29.98,2.5,2.07,4.55,3.77Z"/>
          <path class="cls-4" d="M21.18,55.98c-.12,2.43-.16,4.05-.3,5.67-.11,1.36-.42,2.81-2.17,2.72-1.72-.08-1.81-1.58-2.01-2.91-1.72-11.71,1.59-14.89,13.58-13.1,1.39.21,2.76.42,2.65,2.19-.09,1.43-1.28,1.78-2.51,1.81-1.8.04-3.6,0-5.53,0,3.72,6.35,11.67,9.4,20.18,7.93,7.48-1.3,14.34-8.3,15.77-15.9.4-2.13-.64-6.16,2.94-5.4,3.02.64,1.3,4.36.92,6.53-3.04,17.3-24.09,24.87-38.9,14.09-1.31-.95-2.56-2-4.63-3.63Z"/>
        </g>
      </g>
    </g>
  </g>
</svg>