<?xml version="1.0" encoding="UTF-8"?>
<svg xmlns="http://www.w3.org/2000/svg" viewBox="0 0 27.9 27.9">
  <defs>
    <style>
      .cls-1 {
        fill: #606060;
      }

      .cls-1, .cls-2 {
        stroke-width: 0px;
      }

      .cls-2 {
        fill: #fff;
      }
    </style>
  </defs>
  <g id="Capa_5" data-name="Capa 5">
    <path class="cls-2" d="M4.25,20.73V7.16c.02-.07.04-.14.05-.21.31-1.33,1.12-2.19,2.41-2.59.15-.05.3-.08.45-.11h13.57s.08.03.12.04c1.39.29,2.29,1.12,2.7,2.49.04.13.06.26.1.39v13.57s-.03.1-.04.15c-.3,1.37-1.13,2.26-2.47,2.67-.13.04-.27.07-.4.1h-3.75c0-.06-.01-.11-.01-.17,0-2.32,0-4.64,0-6.96v-.2h.2c.95,0,1.9,0,2.85,0,.14,0,.19-.03.18-.18,0-.96,0-1.92,0-2.88,0-.05,0-.11,0-.18h-3.21c0-.5-.02-.98,0-1.46.03-.46.32-.69.77-.69.74,0,1.49,0,2.23,0,.07,0,.13,0,.2-.01v-3.22h-2.53c-.7,0-1.34.2-1.92.6-.98.69-1.55,1.65-1.72,2.82-.09.58-.05,1.18-.07,1.78,0,.06,0,.12,0,.19h-2.36c0,.05-.01.09-.01.12,0,.99,0,1.97,0,2.96,0,.13.05.15.17.15.67,0,1.34,0,2.01,0h.2v7.32h-6.78s-.09-.03-.13-.04c-1.38-.3-2.27-1.12-2.68-2.47-.04-.13-.07-.27-.1-.4"/>
  </g>
  <g id="Capa_6" data-name="Capa 6">
    <path class="cls-1" d="M-1892.34-6465.22V1741.48H1278.73V-6465.22H-1892.34ZM376.19,623.32H-989.81v-5970.38H376.19V623.32Z"/>
  </g>
</svg>