<?xml version="1.0" encoding="UTF-8"?>
<svg xmlns="http://www.w3.org/2000/svg" viewBox="0 0 27.9 27.9">
  <defs>
    <style>
      .cls-1 {
        fill: #606060;
      }

      .cls-1, .cls-2 {
        stroke-width: 0px;
      }

      .cls-2 {
        fill: #fff;
      }
    </style>
  </defs>
  <g id="Capa_5" data-name="Capa 5">
    <path class="cls-2" d="M12.98,4.98c3.38.16,6.77.3,10.15.5,2.01.12,3.08,1.05,3.42,3.05.69,4.01.68,8.04-.07,12.04-.27,1.42-1.45,2.47-2.99,2.58-2.5.18-5,.39-7.5.38-3.95-.02-7.89-.19-11.84-.37-1.74-.08-2.96-1.05-3.15-2.8-.31-2.8-.38-5.63-.43-8.45-.02-1.22.18-2.47.42-3.67.33-1.65,1.45-2.58,3.14-2.74,1.47-.13,2.94-.26,4.41-.32,1.47-.05,2.95-.01,4.42-.01,0-.07,0-.13,0-.2M11.11,10.34v8.01c2.35-1.36,4.59-2.65,6.96-4.01-2.4-1.38-4.62-2.66-6.96-4"/>
  </g>
  <g id="Capa_6" data-name="Capa 6">
    <path class="cls-1" d="M-1977.89-6465.22V1741.48H1193.19V-6465.22H-1977.89ZM290.65,623.32h-1366v-5970.38H290.65V623.32Z"/>
  </g>
</svg>