<?xml version="1.0" encoding="UTF-8"?>
<svg xmlns="http://www.w3.org/2000/svg" viewBox="0 0 27.9 27.9">
  <defs>
    <style>
      .cls-1 {
        fill: #606060;
      }

      .cls-1, .cls-2 {
        stroke-width: 0px;
      }

      .cls-2 {
        fill: #fff;
      }
    </style>
  </defs>
  <g id="Capa_5" data-name="Capa 5">
    <g>
      <path class="cls-2" d="M13.78,4.39c1.48.04,2.96.05,4.44.13,1.35.07,2.58.5,3.58,1.45.95.91,1.45,2.05,1.58,3.33.1.93.13,1.88.13,2.82.02,1.69,0,3.38-.02,5.07-.01.87-.03,1.75-.25,2.61-.58,2.22-2.03,3.54-4.27,3.9-1.03.17-2.08.17-3.13.19-1.7.02-3.41,0-5.11-.02-.86-.01-1.72-.03-2.56-.25-2.22-.57-3.55-2.01-3.92-4.26-.17-1.04-.18-2.11-.19-3.17-.02-1.69,0-3.38.02-5.07.01-.91.03-1.82.28-2.71.6-2.16,2.04-3.43,4.22-3.79,1.05-.17,2.13-.16,3.19-.2.67-.03,1.35,0,2.02,0v-.03M13.76,22.16v-.03c.79,0,1.59.02,2.38,0,.78-.02,1.56-.04,2.33-.12,1.71-.19,2.84-1.24,3.11-2.95.13-.85.15-1.71.16-2.57.02-1.55.02-3.1,0-4.64,0-.79-.04-1.59-.12-2.37-.19-1.72-1.24-2.85-2.94-3.11-.83-.13-1.68-.15-2.52-.16-1.58-.02-3.17-.02-4.75,0-.78,0-1.56.04-2.33.12-1.71.19-2.84,1.24-3.09,2.94-.13.85-.15,1.73-.16,2.59-.02,1.72-.01,3.44.01,5.16.01.7.04,1.41.15,2.1.23,1.41,1.03,2.37,2.43,2.76.41.11.85.18,1.28.2,1.36.05,2.72.07,4.08.1"/>
      <path class="cls-2" d="M13.77,9.15c2.77,0,5.01,2.24,5,5.01,0,2.77-2.25,5-5.02,5-2.76,0-4.99-2.24-4.99-5,0-2.77,2.24-5.01,5-5.01M10.54,14.15c0,1.79,1.44,3.24,3.2,3.25,1.82,0,3.27-1.43,3.27-3.22,0-1.8-1.44-3.25-3.22-3.25s-3.25,1.44-3.25,3.22"/>
      <path class="cls-2" d="M18.97,10.13c-.65,0-1.17-.51-1.17-1.16,0-.66.52-1.18,1.18-1.18.65,0,1.16.53,1.16,1.18,0,.65-.52,1.17-1.17,1.17"/>
    </g>
  </g>
  <g id="Capa_6" data-name="Capa 6">
    <path class="cls-1" d="M-1934.03-6465.22V1741.48H1237.05V-6465.22H-1934.03ZM334.51,623.32h-1366v-5970.38H334.51V623.32Z"/>
  </g>
</svg>