<?xml version="1.0" encoding="UTF-8"?>
<svg xmlns="http://www.w3.org/2000/svg" xmlns:xlink="http://www.w3.org/1999/xlink" viewBox="0 0 83.91 83.91">
  <defs>
    <style>
      .cls-1 {
        fill: url(#Degradado_sin_nombre_22);
      }

      .cls-1, .cls-2, .cls-3, .cls-4 {
        stroke-width: 0px;
      }

      .cls-5 {
        clip-path: url(#clippath);
      }

      .cls-2 {
        fill: none;
      }

      .cls-3 {
        opacity: .18;
      }

      .cls-3, .cls-4 {
        fill: #f50450;
      }
    </style>
    <clipPath id="clippath">
      <rect class="cls-2" x="-2362.69" y="-1859.34" width="683.27" height="666.93"/>
    </clipPath>
    <radialGradient id="Degradado_sin_nombre_22" data-name="Degradado sin nombre 22" cx="-927.27" cy="-799.72" fx="-927.27" fy="-799.72" r="1330.8" gradientUnits="userSpaceOnUse">
      <stop offset=".08" stop-color="#f50450"/>
      <stop offset="1" stop-color="#f50450" stop-opacity="0"/>
    </radialGradient>
  </defs>
  <g id="Capa_2" data-name="Capa 2">
    <g class="cls-5">
      <circle class="cls-1" cx="-927.27" cy="-799.72" r="1330.8"/>
    </g>
  </g>
  <g id="Capa_5" data-name="Capa 5">
    <g>
      <circle class="cls-3" cx="41.96" cy="41.96" r="41.96"/>
      <g id="bfTRld.tif">
        <g>
          <path class="cls-4" d="M41.94,13.65c-6.96.27-12.11,3.41-15.15,9.5-3,6-2.3,11.77,2.06,17.02,1.25,1.5,2.65,2.91,3.3,4.87.41,1.22,1.02,2.71,2.76,2.05,1.55-.59,1.43-1.96,1.08-3.35-.63-2.51-2.46-4.24-3.92-6.21-4.23-5.71-3.83-12.02,1.06-16.36,5.26-4.67,12.89-4.48,17.89.44,4.6,4.52,4.7,10.97.3,16.38-1.45,1.78-3.06,3.45-3.63,5.81-.34,1.41-.41,2.7,1.15,3.31,1.47.58,2.19-.6,2.53-1.67.68-2.12,2.09-3.75,3.48-5.34,4.61-5.23,4.94-10.98,2.01-16.96-3.01-6.14-8.19-9.2-14.94-9.5ZM41.84,57.2c2.28,0,4.56,0,6.84,0,1.3,0,2.27-.52,2.29-1.95.02-1.42-.93-1.99-2.24-1.99-4.56-.01-9.12-.01-13.68,0-1.29,0-2.27.51-2.29,1.94-.02,1.43.93,1.98,2.24,1.99,2.28.02,4.56,0,6.84.01ZM41.57,67.25c2.28-.89,6.63,1.39,6.65-1.97.02-3.85-4.38-1.97-6.8-2.04-2.1-.06-6.05-1.57-5.98,1.92.06,3.38,4,1.27,6.14,2.08Z"/>
          <path class="cls-4" d="M41.94,13.65c6.74.3,11.93,3.35,14.94,9.5,2.93,5.97,2.6,11.73-2.01,16.96-1.4,1.58-2.8,3.21-3.48,5.34-.34,1.07-1.06,2.25-2.53,1.67-1.56-.61-1.49-1.91-1.15-3.31.57-2.35,2.18-4.03,3.63-5.81,4.4-5.41,4.3-11.86-.3-16.38-5-4.92-12.63-5.11-17.89-.44-4.89,4.34-5.28,10.65-1.06,16.36,1.46,1.97,3.29,3.7,3.92,6.21.35,1.39.47,2.76-1.08,3.35-1.74.66-2.35-.83-2.76-2.05-.66-1.96-2.05-3.36-3.3-4.87-4.36-5.25-5.07-11.02-2.06-17.02,3.04-6.09,8.19-9.22,15.15-9.5Z"/>
          <path class="cls-4" d="M41.84,57.2c-2.28,0-4.56.01-6.84,0-1.3-.01-2.25-.56-2.24-1.99.02-1.43.99-1.94,2.29-1.94,4.56,0,9.12,0,13.68,0,1.31,0,2.25.57,2.24,1.99-.02,1.43-.99,1.94-2.29,1.95-2.28.01-4.56,0-6.84,0Z"/>
          <path class="cls-4" d="M41.57,67.25c-2.14-.81-6.07,1.29-6.14-2.08-.06-3.5,3.88-1.99,5.98-1.92,2.42.07,6.82-1.8,6.8,2.04-.02,3.35-4.37,1.07-6.65,1.97Z"/>
        </g>
      </g>
    </g>
  </g>
</svg>