<?xml version="1.0" encoding="UTF-8"?>
<svg id="Capa_5" data-name="Capa 5" xmlns="http://www.w3.org/2000/svg" viewBox="0 0 13.59 20.59">
  <defs>
    <style>
      .cls-1 {
        fill: #fff;
        fill-rule: evenodd;
        stroke-width: 0px;
      }
    </style>
  </defs>
  <path class="cls-1" d="M10.77,13.51c.84,1.63,1.63,3.19,2.42,4.76.15.29.26.6.39.89-3.21,2.13-5.09,1.94-7.41-.91C3.37,14.79,1.36,10.9.33,6.56-.55,2.83.23,1.5,3.99,0c.94,1.83,1.88,3.68,2.81,5.49-.09.16-.12.27-.19.31-2.3,1.35-2.45,1.75-1.39,4.3.34.81.74,1.6,1.21,2.34,1.31,2.04,1.83,2.16,4.34,1.07"/>
</svg>