<?xml version="1.0" encoding="UTF-8"?>
<svg xmlns="http://www.w3.org/2000/svg" xmlns:xlink="http://www.w3.org/1999/xlink" viewBox="0 0 83.91 83.91">
  <defs>
    <style>
      .cls-1 {
        fill: url(#Degradado_sin_nombre_22);
      }

      .cls-1, .cls-2, .cls-3, .cls-4 {
        stroke-width: 0px;
      }

      .cls-5 {
        clip-path: url(#clippath);
      }

      .cls-2 {
        fill: none;
      }

      .cls-3 {
        opacity: .18;
      }

      .cls-3, .cls-4 {
        fill: #f50450;
      }
    </style>
    <clipPath id="clippath">
      <rect class="cls-2" x="-2021.25" y="-1859.34" width="683.27" height="666.93"/>
    </clipPath>
    <radialGradient id="Degradado_sin_nombre_22" data-name="Degradado sin nombre 22" cx="-585.83" cy="-799.72" fx="-585.83" fy="-799.72" r="1330.8" gradientUnits="userSpaceOnUse">
      <stop offset=".08" stop-color="#f50450"/>
      <stop offset="1" stop-color="#f50450" stop-opacity="0"/>
    </radialGradient>
  </defs>
  <g id="Capa_2" data-name="Capa 2">
    <g class="cls-5">
      <circle class="cls-1" cx="-585.83" cy="-799.72" r="1330.8"/>
    </g>
  </g>
  <g id="Capa_5" data-name="Capa 5">
    <g>
      <circle class="cls-3" cx="41.96" cy="41.96" r="41.96"/>
      <path class="cls-4" d="M68.59,41.07c.14,14.57-11.87,26.89-26.39,27.06-14.55.17-26.84-11.83-27.04-26.39-.2-14.53,11.84-26.86,26.37-27.03,14.55-.17,26.92,11.88,27.05,26.36ZM41.62,39.41c1.81,0,3.63-.06,5.43.02,1.88.08,2.84-.59,2.42-2.58-1.07-5.19-2.61-10.18-5.75-14.57-1.33-1.85-2.48-1.85-3.74.01-1.85,2.74-3.3,5.65-4.26,8.84-2.51,8.29-2.55,8.28,5.89,8.27ZM41.95,43.42c-8.9,0-8.94.01-6.21,8.48,1.25,3.86,2.53,9.5,6.3,9.55,3.16.04,4.71-5.64,5.92-9.4q2.76-8.62-6.02-8.63ZM36.19,62.75c-2.47-5.09-5.09-9.86-5.56-15.25-.29-3.32-1.6-4.65-4.92-4.12-1.28.21-2.63.1-3.94.03-1.96-.1-2.5.63-2.21,2.64,1.07,7.48,8.22,14.97,16.63,16.7ZM47.06,63.28c8.73-2.41,13.58-7.31,16.27-14.45,1.92-5.09,1.61-5.61-3.88-5.3-2,.11-5.34-2.02-5.93,2.09-.85,5.92-2.89,11.41-6.47,17.66ZM36.86,19.41c-9.4,2.71-14.39,8.02-16.69,15.92-.34,1.18-2.13,3.82.62,3.84,3.08.03,8,2.51,9.12-1.47,1.67-5.94,2.96-11.93,6.95-18.29ZM47.32,20.05c3.45,5.72,5.7,11.44,6.21,17.69.13,1.59,1.27,1.67,2.48,1.67,1.97,0,3.95-.07,5.92.02,2.04.09,2.38-.71,2.1-2.67-1.08-7.62-8.13-15.06-16.71-16.71Z"/>
    </g>
  </g>
</svg>