<?xml version="1.0" encoding="UTF-8"?>
<svg id="Capa_5" data-name="Capa 5" xmlns="http://www.w3.org/2000/svg" viewBox="0 0 35 25.99">
  <defs>
    <style>
      .cls-1 {
        fill: #fff;
        stroke-width: 0px;
      }
    </style>
  </defs>
  <path class="cls-1" d="M30.75,0H4.25C1.9,0,0,1.91,0,4.25v17.5c0,2.34,1.9,4.24,4.25,4.24h26.51c2.34,0,4.25-1.9,4.25-4.24V4.25c0-2.34-1.91-4.25-4.25-4.25M3.73,1.58c.17-.03.34-.05.52-.05h26.51c.18,0,.35.02.52.05.33,1.38-.07,2.85-1.09,3.87l-9.77,9.77c-.78.78-1.81,1.21-2.91,1.21s-2.13-.43-2.91-1.21L4.81,5.44c-1.02-1.02-1.42-2.49-1.09-3.87M1.53,21.74V4.25c0-.62.21-1.19.56-1.65.02,1.44.59,2.86,1.65,3.92l6.49,6.5L1.6,22.35c-.05-.19-.07-.4-.07-.61M30.75,24.46H4.25c-.71,0-1.36-.28-1.85-.73l8.91-9.64,2.2,2.2c1.06,1.07,2.48,1.65,3.99,1.65s2.92-.58,3.99-1.65l2.21-2.21,8.91,9.64c-.49.45-1.14.74-1.86.74M33.47,21.74c0,.2-.03.4-.07.59l-8.62-9.33,6.49-6.49c1.06-1.06,1.63-2.48,1.65-3.92.35.46.56,1.03.56,1.65v17.5Z"/>
</svg>