<?xml version="1.0" encoding="UTF-8"?>
<svg xmlns="http://www.w3.org/2000/svg" viewBox="0 0 233.7 55.57">
  <defs>
    <style>
      .cls-1 {
        letter-spacing: -.04em;
      }

      .cls-2 {
        letter-spacing: -.04em;
      }

      .cls-3 {
        font-family: Montserrat-ExtraBold, Montserrat;
        font-size: 12.72px;
        font-weight: 700;
      }

      .cls-3, .cls-4 {
        fill: #fff;
      }

      .cls-5 {
        letter-spacing: -.05em;
      }

      .cls-6 {
        letter-spacing: -.05em;
      }

      .cls-7 {
        letter-spacing: -.03em;
      }

      .cls-8 {
        fill: #606060;
      }

      .cls-8, .cls-9, .cls-4 {
        stroke-width: 0px;
      }

      .cls-9 {
        fill: #c9c9c9;
      }
    </style>
  </defs>
  <g id="Capa_5" data-name="Capa 5">
    <g>
      <g>
        <polygon class="cls-9" points="19.25 10.05 12.63 10.05 19.96 28.66 27.7 28.66 19.25 10.05"/>
        <polygon class="cls-9" points="41.78 3.48 40.24 0 36.4 8.83 38 12.49 41.78 3.48"/>
      </g>
      <g>
        <polygon class="cls-4" points="32.52 0 40.25 0 27.71 28.66 19.97 28.66 32.52 0"/>
        <text class="cls-3" transform="translate(184.63 52.16)"><tspan class="cls-5" x="0" y="0">A</tspan><tspan class="cls-2" x="9.43" y="0">ge</tspan><tspan class="cls-7" x="25.54" y="0">n</tspan><tspan class="cls-6" x="33.99" y="0">c</tspan><tspan class="cls-1" x="41.03" y="0">y</tspan></text>
      </g>
      <g>
        <path class="cls-4" d="M61.04,36.08c-2-.53-3.63-1.23-4.88-2.1l2.44-5.49c1.18.78,2.54,1.4,4.1,1.88,1.55.48,3.08.71,4.58.71,2.86,0,4.28-.71,4.28-2.14,0-.75-.41-1.31-1.22-1.67-.81-.36-2.12-.75-3.93-1.15-1.98-.43-3.63-.88-4.96-1.37-1.33-.49-2.47-1.27-3.42-2.35-.95-1.08-1.43-2.53-1.43-4.36,0-1.6.44-3.05,1.32-4.34.88-1.29,2.19-2.31,3.93-3.06,1.74-.75,3.88-1.13,6.41-1.13,1.73,0,3.43.19,5.11.58,1.68.39,3.16.96,4.43,1.71l-2.29,5.52c-2.5-1.35-4.93-2.03-7.29-2.03-1.48,0-2.55.22-3.23.66-.68.44-1.01,1.01-1.01,1.71s.4,1.23,1.2,1.58c.8.35,2.09.71,3.87,1.09,2,.43,3.66.88,4.98,1.37,1.31.49,2.45,1.27,3.42,2.33.96,1.06,1.45,2.51,1.45,4.34,0,1.58-.44,3.01-1.32,4.28-.88,1.28-2.19,2.3-3.94,3.06-1.75.76-3.88,1.15-6.39,1.15-2.13,0-4.2-.26-6.2-.79Z"/>
        <path class="cls-4" d="M86.65,15.95h-8.08v-5.9h23.56v5.9h-8.04v20.4h-7.44V15.95Z"/>
        <path class="cls-4" d="M124.52,30.6v5.75h-21.12V10.05h20.63v5.75h-13.26v4.43h11.68v5.56h-11.68v4.81h13.75Z"/>
        <path class="cls-4" d="M138.65,29.36h-4.06v6.99h-7.44V10.05h12.02c2.38,0,4.45.39,6.2,1.18,1.75.79,3.11,1.92,4.06,3.38.95,1.47,1.43,3.19,1.43,5.17s-.44,3.56-1.33,4.98c-.89,1.42-2.16,2.52-3.81,3.33l5.67,8.27h-7.97l-4.77-6.99ZM142.18,16.92c-.78-.68-1.93-1.01-3.46-1.01h-4.13v7.7h4.13c1.53,0,2.68-.33,3.46-1,.78-.66,1.16-1.61,1.16-2.84s-.39-2.18-1.16-2.86Z"/>
        <path class="cls-4" d="M160.74,10.76h-9.77v-.71h20.29v.71h-9.77v25.59h-.75V10.76Z"/>
        <path class="cls-4" d="M174.9,10.05h.75v26.3h-.75V10.05Z"/>
        <path class="cls-4" d="M204.81,10.05v26.3h-.64l-19.27-24.91v24.91h-.75V10.05h.64l19.27,24.91V10.05h.75Z"/>
        <path class="cls-4" d="M232.46,23.46h.71v9.62c-1.1,1.1-2.44,1.94-4,2.52-1.57.58-3.25.86-5.05.86-2.58,0-4.9-.58-6.97-1.73-2.07-1.15-3.69-2.74-4.87-4.75-1.18-2.02-1.77-4.28-1.77-6.78s.59-4.77,1.77-6.78c1.18-2.02,2.8-3.6,4.87-4.75,2.07-1.15,4.39-1.73,6.97-1.73,1.83,0,3.52.28,5.07.85,1.55.56,2.88,1.4,3.98,2.5l-.45.53c-2.2-2.1-5.07-3.16-8.6-3.16-2.4,0-4.59.55-6.56,1.65-1.97,1.1-3.51,2.61-4.62,4.53-1.11,1.92-1.67,4.04-1.67,6.37s.56,4.45,1.67,6.37c1.11,1.92,2.65,3.43,4.62,4.53,1.97,1.1,4.15,1.65,6.56,1.65,3.48,0,6.26-.99,8.34-2.97v-9.32Z"/>
        <polygon class="cls-4" points="33.07 36.35 35.47 30.86 48.92 30.86 51.14 36.35 33.07 36.35"/>
        <polygon class="cls-4" points="11.53 10.04 19.26 10.04 7.74 36.34 0 36.34 11.53 10.04"/>
        <polygon class="cls-4" points="48.39 36.34 56.12 36.34 44.59 10.04 40.73 18.87 48.39 36.34"/>
        <polygon class="cls-4" points="48.43 10.1 50.36 5.8 48.45 1.44 46.52 5.74 48.43 10.1"/>
      </g>
    </g>
  </g>
  <g id="Capa_6" data-name="Capa 6">
    <path class="cls-8" d="M-1036.42-6526.6V1680.11h3171.07V-6526.6H-1036.42ZM1232.12,561.95H-133.88v-5970.38h1366V561.95Z"/>
  </g>
</svg>