<?xml version="1.0" encoding="UTF-8"?>
<svg id="Capa_4" data-name="Capa 4" xmlns="http://www.w3.org/2000/svg" viewBox="0 0 185.39 46.55">
  <defs>
    <style>
      .cls-1 {
        letter-spacing: -.04em;
      }

      .cls-2 {
        letter-spacing: -.04em;
      }

      .cls-3 {
        font-family: Montserrat-ExtraBold, Montserrat;
        font-size: 12.31px;
        font-weight: 700;
      }

      .cls-3, .cls-4 {
        fill: #f60450;
      }

      .cls-5 {
        letter-spacing: -.05em;
      }

      .cls-6 {
        letter-spacing: -.04em;
      }

      .cls-7 {
        letter-spacing: -.03em;
      }

      .cls-8 {
        fill: #1137c2;
      }

      .cls-8, .cls-9, .cls-4 {
        stroke-width: 0px;
      }

      .cls-9 {
        fill: #c7c7c7;
      }
    </style>
  </defs>
  <g>
    <g>
      <polygon class="cls-9" points="15.26 7.97 10.01 7.97 15.83 22.72 21.96 22.72 15.26 7.97"/>
      <polygon class="cls-9" points="33.12 2.76 31.9 0 28.85 7 30.12 9.9 33.12 2.76"/>
    </g>
    <polygon class="cls-4" points="25.78 0 31.91 0 21.96 22.72 15.83 22.72 25.78 0"/>
    <g>
      <path class="cls-8" d="M48.39,28.61c-1.59-.42-2.88-.97-3.87-1.67l1.94-4.35c.93.62,2.02,1.11,3.25,1.49,1.23.38,2.44.57,3.63.57,2.26,0,3.4-.57,3.4-1.7,0-.6-.32-1.04-.97-1.33-.65-.29-1.68-.59-3.11-.91-1.57-.34-2.88-.7-3.93-1.09-1.05-.39-1.96-1.01-2.71-1.86-.75-.85-1.13-2.01-1.13-3.46,0-1.27.35-2.42,1.04-3.44.69-1.02,1.73-1.83,3.11-2.43,1.38-.6,3.07-.89,5.08-.89,1.37,0,2.72.15,4.05.46,1.33.31,2.5.76,3.51,1.36l-1.82,4.38c-1.99-1.07-3.91-1.61-5.78-1.61-1.17,0-2.03.17-2.56.52-.54.35-.8.8-.8,1.36s.32.97.95,1.25c.64.28,1.66.57,3.07.86,1.59.34,2.9.7,3.95,1.09,1.04.39,1.95,1,2.71,1.85.76.84,1.15,1.99,1.15,3.44,0,1.25-.35,2.38-1.04,3.4-.7,1.01-1.74,1.82-3.13,2.43-1.39.61-3.08.91-5.06.91-1.69,0-3.33-.21-4.91-.63Z"/>
      <path class="cls-8" d="M68.69,12.64h-6.4v-4.68h18.68v4.68h-6.37v16.17h-5.9V12.64Z"/>
      <path class="cls-8" d="M98.72,24.26v4.56h-16.74V7.97h16.35v4.56h-10.51v3.51h9.26v4.41h-9.26v3.81h10.9Z"/>
      <path class="cls-8" d="M109.92,23.28h-3.22v5.54h-5.9V7.97h9.53c1.89,0,3.52.31,4.91.94,1.39.63,2.46,1.52,3.22,2.68.75,1.16,1.13,2.53,1.13,4.1s-.35,2.83-1.06,3.95c-.71,1.12-1.71,2-3.02,2.64l4.5,6.55h-6.31l-3.78-5.54ZM112.71,13.42c-.62-.54-1.53-.8-2.74-.8h-3.28v6.11h3.28c1.21,0,2.12-.26,2.74-.79.62-.53.92-1.28.92-2.25s-.31-1.73-.92-2.26Z"/>
      <path class="cls-8" d="M127.43,8.53h-7.74v-.57h16.08v.57h-7.74v20.28h-.6V8.53Z"/>
      <path class="cls-8" d="M138.66,7.97h.6v20.85h-.6V7.97Z"/>
      <path class="cls-8" d="M162.37,7.97v20.85h-.51l-15.28-19.75v19.75h-.6V7.97h.51l15.28,19.75V7.97h.6Z"/>
      <path class="cls-8" d="M184.29,18.6h.57v7.63c-.87.87-1.93,1.54-3.17,2-1.24.46-2.58.69-4.01.69-2.05,0-3.89-.46-5.53-1.37-1.64-.91-2.92-2.17-3.86-3.77-.93-1.6-1.4-3.39-1.4-5.38s.47-3.78,1.4-5.38c.93-1.6,2.22-2.85,3.86-3.77,1.64-.91,3.48-1.37,5.53-1.37,1.45,0,2.79.22,4.02.67,1.23.45,2.28,1.11,3.16,1.98l-.36.42c-1.75-1.67-4.02-2.5-6.82-2.5-1.91,0-3.64.44-5.2,1.31-1.56.87-2.78,2.07-3.66,3.59-.88,1.52-1.33,3.2-1.33,5.05s.44,3.53,1.33,5.05c.88,1.52,2.1,2.72,3.66,3.59,1.56.87,3.29,1.31,5.2,1.31,2.76,0,4.96-.78,6.61-2.35v-7.39Z"/>
      <polygon class="cls-8" points="26.22 28.82 28.12 24.47 38.78 24.47 40.54 28.82 26.22 28.82"/>
      <polygon class="cls-8" points="9.14 7.96 15.27 7.96 6.14 28.81 0 28.81 9.14 7.96"/>
      <polygon class="cls-8" points="38.36 28.81 44.49 28.81 35.35 7.96 32.29 14.96 38.36 28.81"/>
      <polygon class="cls-8" points="38.4 8.01 39.93 4.6 38.41 1.14 36.88 4.55 38.4 8.01"/>
    </g>
  </g>
  <text class="cls-3" transform="translate(137.89 43.25)"><tspan class="cls-6" x="0" y="0">A</tspan><tspan class="cls-1" x="9.12" y="0">ge</tspan><tspan class="cls-7" x="24.72" y="0">n</tspan><tspan class="cls-5" x="32.9" y="0">c</tspan><tspan class="cls-2" x="39.71" y="0">y</tspan></text>
</svg>