<?xml version="1.0" encoding="utf-8"?>
<!-- Generator: Adobe Illustrator 28.2.0, SVG Export Plug-In . SVG Version: 6.00 Build 0)  -->
<svg version="1.1" id="Capa_4" xmlns="http://www.w3.org/2000/svg" xmlns:xlink="http://www.w3.org/1999/xlink" x="0px" y="0px"
	 viewBox="0 0 185.4 46.5" style="enable-background:new 0 0 185.4 46.5;" xml:space="preserve">
<style type="text/css">
	.st0{fill:#C7C7C7;}
	.st1{fill:#F60450;}
	.st2{fill:#1137C2;}
	.st3{enable-background:new    ;}
</style>
<g>
	<g>
		<polygon class="st0" points="15.3,8 10,8 15.8,22.7 22,22.7 		"/>
		<polygon class="st0" points="33.1,2.8 31.9,0 28.9,7 30.1,9.9 		"/>
	</g>
	<polygon class="st1" points="25.8,0 31.9,0 22,22.7 15.8,22.7 	"/>
	<g>
		<path class="st2" d="M48.4,28.6c-1.6-0.4-2.9-1-3.9-1.7l1.9-4.4c0.9,0.6,2,1.1,3.2,1.5s2.4,0.6,3.6,0.6c2.3,0,3.4-0.6,3.4-1.7
			c0-0.6-0.3-1-1-1.3s-1.7-0.6-3.1-0.9c-1.6-0.3-2.9-0.7-3.9-1.1s-2-1-2.7-1.9s-1.1-2-1.1-3.5c0-1.3,0.3-2.4,1-3.4
			c0.7-1,1.7-1.8,3.1-2.4s3.1-0.9,5.1-0.9c1.4,0,2.7,0.2,4,0.5c1.3,0.3,2.5,0.8,3.5,1.4l-1.8,4.4c-2-1.1-3.9-1.6-5.8-1.6
			c-1.2,0-2,0.2-2.6,0.5C51,13,50.7,13.4,50.7,14s0.3,1,1,1.2c0.6,0.3,1.7,0.6,3.1,0.9c1.6,0.3,2.9,0.7,4,1.1c1,0.4,2,1,2.7,1.9
			c0.8,0.8,1.2,2,1.2,3.4c0,1.2-0.3,2.4-1,3.4c-0.7,1-1.7,1.8-3.1,2.4s-3.1,0.9-5.1,0.9C51.6,29.2,50,29,48.4,28.6L48.4,28.6z"/>
		<path class="st2" d="M68.7,12.6h-6.4V8H81v4.7h-6.4v16.2h-5.9L68.7,12.6L68.7,12.6z"/>
		<path class="st2" d="M98.7,24.3v4.6H82V8h16.3v4.6H87.8V16h9.3v4.4h-9.3v3.8C87.8,24.3,98.7,24.3,98.7,24.3z"/>
		<path class="st2" d="M109.9,23.3h-3.2v5.5h-5.9V8h9.5c1.9,0,3.5,0.3,4.9,0.9s2.5,1.5,3.2,2.7c0.8,1.2,1.1,2.5,1.1,4.1
			s-0.3,2.8-1.1,4s-1.7,2-3,2.6l4.5,6.6h-6.3L109.9,23.3L109.9,23.3z M112.7,13.4c-0.6-0.5-1.5-0.8-2.7-0.8h-3.3v6.1h3.3
			c1.2,0,2.1-0.3,2.7-0.8c0.6-0.5,0.9-1.3,0.9-2.2S113.3,14,112.7,13.4L112.7,13.4z"/>
		<path class="st2" d="M127.4,8.5h-7.7V8h16.1v0.6H128v20.3h-0.6V8.5z"/>
		<path class="st2" d="M138.7,8h0.6v20.9h-0.6V8z"/>
		<path class="st2" d="M162.4,8v20.9h-0.5L146.6,9.1v19.8H146V8h0.5l15.3,19.8V8H162.4z"/>
		<path class="st2" d="M184.3,18.6h0.6v7.6c-0.9,0.9-1.9,1.5-3.2,2s-2.6,0.7-4,0.7c-2.1,0-3.9-0.5-5.5-1.4c-1.6-0.9-2.9-2.2-3.9-3.8
			c-0.9-1.6-1.4-3.4-1.4-5.4s0.5-3.8,1.4-5.4s2.2-2.8,3.9-3.8c1.6-0.9,3.5-1.4,5.5-1.4c1.4,0,2.8,0.2,4,0.7c1.2,0.4,2.3,1.1,3.2,2
			l-0.4,0.4c-1.8-1.7-4-2.5-6.8-2.5c-1.9,0-3.6,0.4-5.2,1.3s-2.8,2.1-3.7,3.6s-1.3,3.2-1.3,5s0.4,3.5,1.3,5c0.9,1.5,2.1,2.7,3.7,3.6
			s3.3,1.3,5.2,1.3c2.8,0,5-0.8,6.6-2.4L184.3,18.6L184.3,18.6z"/>
		<polygon class="st2" points="26.2,28.8 28.1,24.5 38.8,24.5 40.5,28.8 		"/>
		<polygon class="st2" points="9.1,8 15.3,8 6.1,28.8 0,28.8 		"/>
		<polygon class="st2" points="38.4,28.8 44.5,28.8 35.3,8 32.3,15 		"/>
		<polygon class="st2" points="38.4,8 39.9,4.6 38.4,1.1 36.9,4.6 		"/>
	</g>
</g>
<g class="st3">
	<path class="st1" d="M144.6,41.4h-4l-0.8,1.8h-2l3.8-8.6h2l3.9,8.6h-2.1L144.6,41.4z M144,39.9l-1.4-3.3l-1.4,3.3H144z"/>
</g>
<g class="st3">
	<path class="st1" d="M154.7,36.6v5.5c0,1.2-0.3,2.1-0.9,2.7s-1.6,0.9-2.8,0.9c-0.6,0-1.2-0.1-1.8-0.2c-0.6-0.2-1-0.4-1.4-0.7
		l0.8-1.4c0.3,0.2,0.6,0.4,1.1,0.5c0.4,0.1,0.9,0.2,1.3,0.2c0.7,0,1.2-0.2,1.5-0.4c0.3-0.3,0.5-0.8,0.5-1.4v-0.3
		c-0.5,0.5-1.2,0.8-2.1,0.8c-0.6,0-1.2-0.1-1.7-0.4c-0.5-0.3-0.9-0.6-1.2-1.1c-0.3-0.5-0.4-1-0.4-1.7s0.1-1.2,0.4-1.7
		c0.3-0.5,0.7-0.9,1.2-1.1c0.5-0.3,1.1-0.4,1.7-0.4c1,0,1.7,0.3,2.2,0.9v-0.8H154.7z M152.3,40.9c0.3-0.3,0.5-0.7,0.5-1.2
		s-0.2-0.9-0.5-1.2s-0.7-0.4-1.2-0.4s-0.9,0.1-1.3,0.4c-0.3,0.3-0.5,0.7-0.5,1.2s0.2,0.9,0.5,1.2c0.3,0.3,0.7,0.4,1.3,0.4
		S152,41.2,152.3,40.9z"/>
	<path class="st1" d="M162.5,40.5h-5c0.1,0.4,0.3,0.7,0.6,1c0.3,0.2,0.8,0.4,1.3,0.4c0.3,0,0.7-0.1,0.9-0.2c0.3-0.1,0.5-0.3,0.7-0.5
		l1,1.1c-0.6,0.7-1.5,1.1-2.7,1.1c-0.7,0-1.4-0.1-2-0.4c-0.6-0.3-1-0.7-1.3-1.2c-0.3-0.5-0.5-1.1-0.5-1.8c0-0.6,0.2-1.2,0.5-1.8
		s0.7-0.9,1.3-1.2s1.1-0.4,1.8-0.4c0.6,0,1.2,0.1,1.8,0.4c0.5,0.3,0.9,0.7,1.2,1.2s0.4,1.1,0.4,1.8C162.5,40,162.5,40.2,162.5,40.5z
		 M158,38.4c-0.3,0.2-0.5,0.6-0.5,1h3.3c-0.1-0.4-0.2-0.8-0.5-1c-0.3-0.2-0.7-0.4-1.1-0.4C158.6,38,158.3,38.1,158,38.4z"/>
</g>
<g class="st3">
	<path class="st1" d="M169.5,37.3c0.5,0.5,0.8,1.2,0.8,2.2v3.8h-1.9v-3.5c0-0.5-0.1-0.9-0.3-1.2c-0.2-0.3-0.6-0.4-1-0.4
		c-0.5,0-0.9,0.2-1.2,0.4c-0.3,0.3-0.4,0.7-0.4,1.3v3.3h-1.9v-6.6h1.8v0.8c0.3-0.3,0.6-0.5,0.9-0.6c0.4-0.2,0.8-0.2,1.2-0.2
		C168.3,36.5,169,36.8,169.5,37.3z"/>
</g>
<g class="st3">
	<path class="st1" d="M173,42.9c-0.6-0.3-1-0.7-1.3-1.2c-0.3-0.5-0.5-1.1-0.5-1.8c0-0.7,0.2-1.2,0.5-1.8c0.3-0.5,0.8-0.9,1.3-1.2
		c0.6-0.3,1.2-0.4,1.9-0.4c0.7,0,1.3,0.1,1.8,0.4s0.9,0.7,1.1,1.2l-1.5,0.8c-0.3-0.6-0.8-0.9-1.5-0.9c-0.5,0-0.9,0.2-1.2,0.5
		s-0.5,0.8-0.5,1.3s0.2,1,0.5,1.3s0.7,0.5,1.2,0.5c0.7,0,1.2-0.3,1.5-0.9l1.5,0.8c-0.2,0.5-0.6,0.9-1.1,1.2
		c-0.5,0.3-1.1,0.4-1.8,0.4C174.2,43.3,173.5,43.2,173,42.9z"/>
</g>
<g class="st3">
	<path class="st1" d="M185.1,36.6l-3,7c-0.3,0.8-0.7,1.3-1.1,1.6c-0.4,0.3-1,0.5-1.6,0.5c-0.3,0-0.7-0.1-1-0.2
		c-0.3-0.1-0.6-0.3-0.8-0.4l0.7-1.4c0.1,0.1,0.3,0.2,0.5,0.3c0.2,0.1,0.4,0.1,0.6,0.1c0.3,0,0.5-0.1,0.6-0.2
		c0.2-0.1,0.3-0.3,0.4-0.6l0-0.1l-2.9-6.7h2l1.9,4.5l1.9-4.5H185.1z"/>
</g>
</svg>
