<?xml version="1.0" encoding="utf-8"?>
<!-- Generator: Adobe Illustrator 28.2.0, SVG Export Plug-In . SVG Version: 6.00 Build 0)  -->
<svg version="1.1" id="Capa_1" xmlns="http://www.w3.org/2000/svg" xmlns:xlink="http://www.w3.org/1999/xlink" x="0px" y="0px"
	 viewBox="0 0 233.7 55.6" style="enable-background:new 0 0 233.7 55.6;" xml:space="preserve">
<style type="text/css">
	.st0{fill:#C9C9C9;}
	.st1{fill:#FFFFFF;}
	.st2{enable-background:new    ;}
	.st3{fill:#606060;}
</style>
<g id="Capa_5">
	<g>
		<g>
			<polygon class="st0" points="19.2,10.1 12.6,10.1 20,28.7 27.7,28.7 			"/>
			<polygon class="st0" points="41.8,3.5 40.2,0 36.4,8.8 38,12.5 			"/>
		</g>
		<g>
			<polygon class="st1" points="32.5,0 40.2,0 27.7,28.7 20,28.7 			"/>
			<g class="st2">
				<path class="st1" d="M191.5,50.3h-4.1l-0.8,1.9h-2.1l4-8.9h2l4,8.9h-2.2L191.5,50.3z M190.9,48.7l-1.4-3.4l-1.4,3.4H190.9z"/>
			</g>
			<g class="st2">
				<path class="st1" d="M202,45.3V51c0,1.3-0.3,2.2-1,2.8s-1.6,0.9-2.9,0.9c-0.7,0-1.3-0.1-1.9-0.2c-0.6-0.2-1.1-0.4-1.5-0.7
					l0.8-1.4c0.3,0.2,0.7,0.4,1.1,0.6c0.4,0.1,0.9,0.2,1.3,0.2c0.7,0,1.2-0.2,1.5-0.5c0.3-0.3,0.5-0.8,0.5-1.4V51
					c-0.5,0.6-1.2,0.9-2.2,0.9c-0.6,0-1.2-0.1-1.7-0.4s-0.9-0.7-1.2-1.2c-0.3-0.5-0.5-1.1-0.5-1.7s0.2-1.2,0.5-1.7
					c0.3-0.5,0.7-0.9,1.2-1.2c0.5-0.3,1.1-0.4,1.7-0.4c1,0,1.7,0.3,2.3,1v-0.9H202z M199.6,49.7c0.3-0.3,0.5-0.7,0.5-1.2
					s-0.2-0.9-0.5-1.2s-0.8-0.5-1.3-0.5c-0.5,0-1,0.2-1.3,0.5s-0.5,0.7-0.5,1.2s0.2,0.9,0.5,1.2s0.8,0.5,1.3,0.5
					C198.8,50.2,199.2,50,199.6,49.7z"/>
				<path class="st1" d="M210,49.3h-5.2c0.1,0.4,0.3,0.8,0.7,1c0.3,0.2,0.8,0.4,1.3,0.4c0.4,0,0.7-0.1,0.9-0.2
					c0.3-0.1,0.5-0.3,0.8-0.5l1.1,1.1c-0.6,0.7-1.6,1.1-2.8,1.1c-0.8,0-1.5-0.2-2-0.5s-1.1-0.7-1.4-1.3c-0.3-0.5-0.5-1.1-0.5-1.8
					c0-0.7,0.2-1.3,0.5-1.8c0.3-0.5,0.8-1,1.3-1.3c0.6-0.3,1.2-0.5,1.9-0.5c0.7,0,1.3,0.1,1.8,0.4c0.5,0.3,1,0.7,1.3,1.2
					c0.3,0.5,0.5,1.2,0.5,1.9C210.1,48.8,210.1,49,210,49.3z M205.4,47.1c-0.3,0.3-0.5,0.6-0.6,1h3.4c-0.1-0.4-0.3-0.8-0.6-1
					c-0.3-0.3-0.7-0.4-1.1-0.4C206.1,46.7,205.7,46.8,205.4,47.1z"/>
			</g>
			<g class="st2">
				<path class="st1" d="M217.3,46c0.5,0.5,0.8,1.3,0.8,2.3v3.9h-2v-3.6c0-0.5-0.1-0.9-0.4-1.2c-0.2-0.3-0.6-0.4-1-0.4
					c-0.5,0-0.9,0.2-1.2,0.5s-0.4,0.8-0.4,1.4v3.4h-2v-6.8h1.9v0.8c0.3-0.3,0.6-0.5,1-0.7c0.4-0.2,0.8-0.2,1.3-0.2
					C216.1,45.2,216.8,45.5,217.3,46z"/>
			</g>
			<g class="st2">
				<path class="st1" d="M220.9,51.8c-0.6-0.3-1-0.7-1.4-1.3s-0.5-1.1-0.5-1.8c0-0.7,0.2-1.3,0.5-1.8s0.8-1,1.4-1.3
					c0.6-0.3,1.2-0.5,2-0.5c0.7,0,1.4,0.2,1.9,0.5c0.5,0.3,0.9,0.7,1.2,1.3l-1.5,0.8c-0.4-0.6-0.9-0.9-1.5-0.9
					c-0.5,0-0.9,0.2-1.3,0.5c-0.3,0.3-0.5,0.8-0.5,1.4s0.2,1,0.5,1.4c0.3,0.3,0.8,0.5,1.3,0.5c0.7,0,1.2-0.3,1.5-0.9l1.5,0.8
					c-0.2,0.5-0.6,1-1.2,1.3c-0.5,0.3-1.2,0.5-1.9,0.5C222.1,52.3,221.5,52.1,220.9,51.8z"/>
			</g>
			<g class="st2">
				<path class="st1" d="M233.4,45.3l-3.1,7.3c-0.3,0.8-0.7,1.3-1.2,1.7s-1,0.5-1.7,0.5c-0.4,0-0.7-0.1-1.1-0.2s-0.6-0.3-0.9-0.5
					l0.7-1.4c0.2,0.1,0.3,0.2,0.5,0.3s0.4,0.1,0.6,0.1c0.3,0,0.5-0.1,0.7-0.2c0.2-0.1,0.3-0.3,0.5-0.7l0-0.1l-3-6.9h2l1.9,4.6
					l1.9-4.6H233.4z"/>
			</g>
		</g>
		<g>
			<path class="st1" d="M61,36.1c-2-0.5-3.6-1.2-4.9-2.1l2.4-5.5c1.2,0.8,2.5,1.4,4.1,1.9c1.6,0.5,3.1,0.7,4.6,0.7
				c2.9,0,4.3-0.7,4.3-2.1c0-0.8-0.4-1.3-1.2-1.7s-2.1-0.8-3.9-1.1c-2-0.4-3.6-0.9-5-1.4c-1.3-0.5-2.5-1.3-3.4-2.4
				c-1-1.1-1.4-2.5-1.4-4.4c0-1.6,0.4-3.1,1.3-4.3s2.2-2.3,3.9-3.1s3.9-1.1,6.4-1.1c1.7,0,3.4,0.2,5.1,0.6s3.2,1,4.4,1.7l-2.3,5.5
				c-2.5-1.4-4.9-2-7.3-2c-1.5,0-2.6,0.2-3.2,0.7s-1,1-1,1.7s0.4,1.2,1.2,1.6s2.1,0.7,3.9,1.1c2,0.4,3.7,0.9,5,1.4
				c1.3,0.5,2.4,1.3,3.4,2.3c1,1.1,1.4,2.5,1.4,4.3c0,1.6-0.4,3-1.3,4.3c-0.9,1.3-2.2,2.3-3.9,3.1c-1.8,0.8-3.9,1.2-6.4,1.2
				C65.1,36.9,63,36.6,61,36.1L61,36.1z"/>
			<path class="st1" d="M86.7,15.9h-8.1V10h23.6v5.9h-8v20.4h-7.4C86.6,36.3,86.6,15.9,86.7,15.9z"/>
			<path class="st1" d="M124.5,30.6v5.7h-21.1V10.1H124v5.8h-13.3v4.4h11.7v5.6h-11.7v4.8C110.8,30.6,124.5,30.6,124.5,30.6z"/>
			<path class="st1" d="M138.6,29.4h-4.1v7h-7.4V10.1h12c2.4,0,4.4,0.4,6.2,1.2s3.1,1.9,4.1,3.4c0.9,1.5,1.4,3.2,1.4,5.2
				s-0.4,3.6-1.3,5s-2.2,2.5-3.8,3.3l5.7,8.3h-8L138.6,29.4L138.6,29.4z M142.2,16.9c-0.8-0.7-1.9-1-3.5-1h-4.1v7.7h4.1
				c1.5,0,2.7-0.3,3.5-1c0.8-0.7,1.2-1.6,1.2-2.8S142.9,17.6,142.2,16.9L142.2,16.9z"/>
			<path class="st1" d="M160.7,10.8H151v-0.7h20.3v0.7h-9.8v25.6h-0.8V10.8z"/>
			<path class="st1" d="M174.9,10.1h0.8v26.3h-0.8V10.1z"/>
			<path class="st1" d="M204.8,10.1v26.3h-0.6l-19.3-24.9v24.9h-0.8V10.1h0.6L204.1,35V10.1H204.8z"/>
			<path class="st1" d="M232.5,23.5h0.7v9.6c-1.1,1.1-2.4,1.9-4,2.5c-1.6,0.6-3.2,0.9-5.1,0.9c-2.6,0-4.9-0.6-7-1.7
				c-2.1-1.2-3.7-2.7-4.9-4.8c-1.2-2-1.8-4.3-1.8-6.8s0.6-4.8,1.8-6.8c1.2-2,2.8-3.6,4.9-4.8c2.1-1.1,4.4-1.7,7-1.7
				c1.8,0,3.5,0.3,5.1,0.9c1.6,0.6,2.9,1.4,4,2.5l-0.4,0.5c-2.2-2.1-5.1-3.2-8.6-3.2c-2.4,0-4.6,0.6-6.6,1.6s-3.5,2.6-4.6,4.5
				s-1.7,4-1.7,6.4s0.6,4.5,1.7,6.4s2.6,3.4,4.6,4.5s4.1,1.7,6.6,1.7c3.5,0,6.3-1,8.3-3V23.5L232.5,23.5z"/>
			<polygon class="st1" points="33.1,36.3 35.5,30.9 48.9,30.9 51.1,36.3 			"/>
			<polygon class="st1" points="11.5,10 19.3,10 7.7,36.3 0,36.3 			"/>
			<polygon class="st1" points="48.4,36.3 56.1,36.3 44.6,10 40.7,18.9 			"/>
			<polygon class="st1" points="48.4,10.1 50.4,5.8 48.5,1.4 46.5,5.7 			"/>
		</g>
	</g>
</g>
<g id="Capa_6">
	<path class="st3" d="M-1036.4-6526.6v8206.7h3171.1v-8206.7H-1036.4z M1232.1,562h-1366v-5970.4h1366V562z"/>
</g>
</svg>
